<svg xmlns="http://www.w3.org/2000/svg" xmlns:xlink="http://www.w3.org/1999/xlink" width="192" zoomAndPan="magnify" viewBox="0 0 144 143.999998" height="192" preserveAspectRatio="xMidYMid meet" version="1.0"><defs><g/><clipPath id="6d565d659a"><path d="M 36 27 L 108 27 L 108 119.25 L 36 119.25 Z M 36 27 " clip-rule="nonzero"/></clipPath><clipPath id="47ad42ade9"><path d="M 46.5 27 L 97.5 27 C 103.300781 27 108 31.699219 108 37.5 L 108 108.75 C 108 114.550781 103.300781 119.25 97.5 119.25 L 46.5 119.25 C 40.699219 119.25 36 114.550781 36 108.75 L 36 37.5 C 36 31.699219 40.699219 27 46.5 27 Z M 46.5 27 " clip-rule="nonzero"/></clipPath><clipPath id="7c108ffaa2"><path d="M 0 0 L 72 0 L 72 92.25 L 0 92.25 Z M 0 0 " clip-rule="nonzero"/></clipPath><clipPath id="da57e0531b"><path d="M 10.5 0 L 61.5 0 C 67.300781 0 72 4.699219 72 10.5 L 72 81.75 C 72 87.550781 67.300781 92.25 61.5 92.25 L 10.5 92.25 C 4.699219 92.25 0 87.550781 0 81.75 L 0 10.5 C 0 4.699219 4.699219 0 10.5 0 Z M 10.5 0 " clip-rule="nonzero"/></clipPath><clipPath id="04f6320bdb"><rect x="0" width="72" y="0" height="93"/></clipPath><clipPath id="83dde93812"><path d="M 72 51 L 77.25 51 L 77.25 56.25 L 72 56.25 Z M 72 51 " clip-rule="nonzero"/></clipPath><clipPath id="e2286490d9"><path d="M 74.625 51 C 73.175781 51 72 52.175781 72 53.625 C 72 55.074219 73.175781 56.25 74.625 56.25 C 76.074219 56.25 77.25 55.074219 77.25 53.625 C 77.25 52.175781 76.074219 51 74.625 51 Z M 74.625 51 " clip-rule="nonzero"/></clipPath><clipPath id="5efc85faa7"><path d="M 0 0 L 5.25 0 L 5.25 5.25 L 0 5.25 Z M 0 0 " clip-rule="nonzero"/></clipPath><clipPath id="47e4ab3571"><path d="M 2.625 0 C 1.175781 0 0 1.175781 0 2.625 C 0 4.074219 1.175781 5.25 2.625 5.25 C 4.074219 5.25 5.25 4.074219 5.25 2.625 C 5.25 1.175781 4.074219 0 2.625 0 Z M 2.625 0 " clip-rule="nonzero"/></clipPath><clipPath id="c5ee035fe6"><rect x="0" width="6" y="0" height="6"/></clipPath><clipPath id="02d60980b7"><path d="M 88.375 26.96875 L 107.753906 26.96875 L 107.753906 46.351562 L 88.375 46.351562 Z M 88.375 26.96875 " clip-rule="nonzero"/></clipPath><clipPath id="81cf7c62a1"><path d="M 107.125 46.351562 L 89.875 46.351562 C 89.476562 46.351562 89.09375 46.191406 88.8125 45.910156 C 88.53125 45.628906 88.375 45.246094 88.375 44.851562 L 88.375 27.601562 C 88.375 27.347656 88.527344 27.121094 88.757812 27.027344 C 88.992188 26.929688 89.257812 26.984375 89.4375 27.160156 L 107.5625 45.289062 C 107.742188 45.46875 107.796875 45.734375 107.699219 45.964844 C 107.601562 46.199219 107.375 46.351562 107.125 46.351562 Z M 107.125 46.351562 " clip-rule="nonzero"/></clipPath><clipPath id="915520bb9f"><path d="M 0.375 0.96875 L 19.753906 0.96875 L 19.753906 20.351562 L 0.375 20.351562 Z M 0.375 0.96875 " clip-rule="nonzero"/></clipPath><clipPath id="438e74d916"><path d="M 19.125 20.351562 L 1.875 20.351562 C 1.476562 20.351562 1.09375 20.191406 0.8125 19.910156 C 0.53125 19.628906 0.375 19.246094 0.375 18.851562 L 0.375 1.601562 C 0.375 1.347656 0.527344 1.121094 0.757812 1.027344 C 0.992188 0.929688 1.257812 0.984375 1.4375 1.160156 L 19.5625 19.289062 C 19.742188 19.46875 19.796875 19.734375 19.699219 19.964844 C 19.601562 20.199219 19.375 20.351562 19.125 20.351562 Z M 19.125 20.351562 " clip-rule="nonzero"/></clipPath><clipPath id="d6d6c43e11"><rect x="0" width="20" y="0" height="21"/></clipPath><clipPath id="d6b45df47e"><path d="M 51 51 L 79.511719 51 L 79.511719 55.5 L 51 55.5 Z M 51 51 " clip-rule="nonzero"/></clipPath><clipPath id="f7e64aa361"><path d="M 53.25 51 L 77.25 51 C 77.847656 51 78.417969 51.238281 78.839844 51.660156 C 79.261719 52.082031 79.5 52.652344 79.5 53.25 C 79.5 53.847656 79.261719 54.417969 78.839844 54.839844 C 78.417969 55.261719 77.847656 55.5 77.25 55.5 L 53.25 55.5 C 52.652344 55.5 52.082031 55.261719 51.660156 54.839844 C 51.238281 54.417969 51 53.847656 51 53.25 C 51 52.652344 51.238281 52.082031 51.660156 51.660156 C 52.082031 51.238281 52.652344 51 53.25 51 Z M 53.25 51 " clip-rule="nonzero"/></clipPath><clipPath id="e62cbdc629"><path d="M 0 0 L 28.511719 0 L 28.511719 4.5 L 0 4.5 Z M 0 0 " clip-rule="nonzero"/></clipPath><clipPath id="b9f4b28017"><path d="M 2.25 0 L 26.25 0 C 26.847656 0 27.417969 0.238281 27.839844 0.660156 C 28.261719 1.082031 28.5 1.652344 28.5 2.25 C 28.5 2.847656 28.261719 3.417969 27.839844 3.839844 C 27.417969 4.261719 26.847656 4.5 26.25 4.5 L 2.25 4.5 C 1.652344 4.5 1.082031 4.261719 0.660156 3.839844 C 0.238281 3.417969 0 2.847656 0 2.25 C 0 1.652344 0.238281 1.082031 0.660156 0.660156 C 1.082031 0.238281 1.652344 0 2.25 0 Z M 2.25 0 " clip-rule="nonzero"/></clipPath><clipPath id="66048ddf4c"><rect x="0" width="29" y="0" height="5"/></clipPath><clipPath id="04a8c8ed1b"><path d="M 27 22.5 L 69.828125 22.5 L 69.828125 47.25 L 27 47.25 Z M 27 22.5 " clip-rule="nonzero"/></clipPath><clipPath id="773051548b"><path d="M 39.375 22.5 L 57.375 22.5 C 60.65625 22.5 63.804688 23.804688 66.125 26.125 C 68.445312 28.445312 69.75 31.59375 69.75 34.875 C 69.75 38.15625 68.445312 41.304688 66.125 43.625 C 63.804688 45.945312 60.65625 47.25 57.375 47.25 L 39.375 47.25 C 36.09375 47.25 32.945312 45.945312 30.625 43.625 C 28.304688 41.304688 27 38.15625 27 34.875 C 27 31.59375 28.304688 28.445312 30.625 26.125 C 32.945312 23.804688 36.09375 22.5 39.375 22.5 Z M 39.375 22.5 " clip-rule="nonzero"/></clipPath><clipPath id="f06913a731"><path d="M 0 0.5 L 42.828125 0.5 L 42.828125 25.25 L 0 25.25 Z M 0 0.5 " clip-rule="nonzero"/></clipPath><clipPath id="af9a002856"><path d="M 12.375 0.5 L 30.375 0.5 C 33.65625 0.5 36.804688 1.804688 39.125 4.125 C 41.445312 6.445312 42.75 9.59375 42.75 12.875 C 42.75 16.15625 41.445312 19.304688 39.125 21.625 C 36.804688 23.945312 33.65625 25.25 30.375 25.25 L 12.375 25.25 C 9.09375 25.25 5.945312 23.945312 3.625 21.625 C 1.304688 19.304688 0 16.15625 0 12.875 C 0 9.59375 1.304688 6.445312 3.625 4.125 C 5.945312 1.804688 9.09375 0.5 12.375 0.5 Z M 12.375 0.5 " clip-rule="nonzero"/></clipPath><clipPath id="765b969197"><rect x="0" width="43" y="0" height="26"/></clipPath><clipPath id="41c69363cf"><path d="M 51 60 L 91.5 60 L 91.5 64.5 L 51 64.5 Z M 51 60 " clip-rule="nonzero"/></clipPath><clipPath id="5c4a06c93c"><path d="M 53.25 60 L 89.25 60 C 89.847656 60 90.417969 60.238281 90.839844 60.660156 C 91.261719 61.082031 91.5 61.652344 91.5 62.25 C 91.5 62.847656 91.261719 63.417969 90.839844 63.839844 C 90.417969 64.261719 89.847656 64.5 89.25 64.5 L 53.25 64.5 C 52.652344 64.5 52.082031 64.261719 51.660156 63.839844 C 51.238281 63.417969 51 62.847656 51 62.25 C 51 61.652344 51.238281 61.082031 51.660156 60.660156 C 52.082031 60.238281 52.652344 60 53.25 60 Z M 53.25 60 " clip-rule="nonzero"/></clipPath><clipPath id="f8791712a8"><path d="M 0 0 L 40.5 0 L 40.5 4.5 L 0 4.5 Z M 0 0 " clip-rule="nonzero"/></clipPath><clipPath id="3e83f5e854"><path d="M 2.25 0 L 38.25 0 C 38.847656 0 39.417969 0.238281 39.839844 0.660156 C 40.261719 1.082031 40.5 1.652344 40.5 2.25 C 40.5 2.847656 40.261719 3.417969 39.839844 3.839844 C 39.417969 4.261719 38.847656 4.5 38.25 4.5 L 2.25 4.5 C 1.652344 4.5 1.082031 4.261719 0.660156 3.839844 C 0.238281 3.417969 0 2.847656 0 2.25 C 0 1.652344 0.238281 1.082031 0.660156 0.660156 C 1.082031 0.238281 1.652344 0 2.25 0 Z M 2.25 0 " clip-rule="nonzero"/></clipPath><clipPath id="ca06f1ee3c"><rect x="0" width="41" y="0" height="5"/></clipPath><clipPath id="b2ea624cdc"><path d="M 46.484375 103.042969 L 54.015625 103.042969 L 54.015625 113.101562 L 46.484375 113.101562 Z M 46.484375 103.042969 " clip-rule="nonzero"/></clipPath><clipPath id="ee8d699fc6"><path d="M 49.859375 103.042969 L 50.640625 103.042969 C 51.535156 103.042969 52.394531 103.398438 53.027344 104.03125 C 53.660156 104.664062 54.015625 105.523438 54.015625 106.417969 L 54.015625 109.707031 C 54.015625 110.601562 53.660156 111.460938 53.027344 112.09375 C 52.394531 112.726562 51.535156 113.082031 50.640625 113.082031 L 49.859375 113.082031 C 48.964844 113.082031 48.105469 112.726562 47.472656 112.09375 C 46.839844 111.460938 46.484375 110.601562 46.484375 109.707031 L 46.484375 106.417969 C 46.484375 105.523438 46.839844 104.664062 47.472656 104.03125 C 48.105469 103.398438 48.964844 103.042969 49.859375 103.042969 Z M 49.859375 103.042969 " clip-rule="nonzero"/></clipPath><clipPath id="d40cbe36a4"><path d="M 0.484375 0.0429688 L 8.015625 0.0429688 L 8.015625 10.101562 L 0.484375 10.101562 Z M 0.484375 0.0429688 " clip-rule="nonzero"/></clipPath><clipPath id="ec8eedd146"><path d="M 3.859375 0.0429688 L 4.640625 0.0429688 C 5.535156 0.0429688 6.394531 0.398438 7.027344 1.03125 C 7.660156 1.664062 8.015625 2.523438 8.015625 3.417969 L 8.015625 6.707031 C 8.015625 7.601562 7.660156 8.460938 7.027344 9.09375 C 6.394531 9.726562 5.535156 10.082031 4.640625 10.082031 L 3.859375 10.082031 C 2.964844 10.082031 2.105469 9.726562 1.472656 9.09375 C 0.839844 8.460938 0.484375 7.601562 0.484375 6.707031 L 0.484375 3.417969 C 0.484375 2.523438 0.839844 1.664062 1.472656 1.03125 C 2.105469 0.398438 2.964844 0.0429688 3.859375 0.0429688 Z M 3.859375 0.0429688 " clip-rule="nonzero"/></clipPath><clipPath id="6bda22565e"><rect x="0" width="9" y="0" height="11"/></clipPath><clipPath id="54bec85a9c"><path d="M 57.359375 94.675781 L 64.890625 94.675781 L 64.890625 113.089844 L 57.359375 113.089844 Z M 57.359375 94.675781 " clip-rule="nonzero"/></clipPath><clipPath id="30f91046fc"><path d="M 60.734375 94.675781 L 61.515625 94.675781 C 62.410156 94.675781 63.269531 95.035156 63.902344 95.667969 C 64.535156 96.300781 64.890625 97.15625 64.890625 98.050781 L 64.890625 109.707031 C 64.890625 110.601562 64.535156 111.460938 63.902344 112.09375 C 63.269531 112.726562 62.410156 113.082031 61.515625 113.082031 L 60.734375 113.082031 C 59.839844 113.082031 58.980469 112.726562 58.347656 112.09375 C 57.714844 111.460938 57.359375 110.601562 57.359375 109.707031 L 57.359375 98.050781 C 57.359375 97.15625 57.714844 96.300781 58.347656 95.667969 C 58.980469 95.035156 59.839844 94.675781 60.734375 94.675781 Z M 60.734375 94.675781 " clip-rule="nonzero"/></clipPath><clipPath id="04469bfdfd"><path d="M 0.359375 0.675781 L 7.890625 0.675781 L 7.890625 19.089844 L 0.359375 19.089844 Z M 0.359375 0.675781 " clip-rule="nonzero"/></clipPath><clipPath id="8d439404e9"><path d="M 3.734375 0.675781 L 4.515625 0.675781 C 5.410156 0.675781 6.269531 1.035156 6.902344 1.667969 C 7.535156 2.300781 7.890625 3.15625 7.890625 4.050781 L 7.890625 15.707031 C 7.890625 16.601562 7.535156 17.460938 6.902344 18.09375 C 6.269531 18.726562 5.410156 19.082031 4.515625 19.082031 L 3.734375 19.082031 C 2.839844 19.082031 1.980469 18.726562 1.347656 18.09375 C 0.714844 17.460938 0.359375 16.601562 0.359375 15.707031 L 0.359375 4.050781 C 0.359375 3.15625 0.714844 2.300781 1.347656 1.667969 C 1.980469 1.035156 2.839844 0.675781 3.734375 0.675781 Z M 3.734375 0.675781 " clip-rule="nonzero"/></clipPath><clipPath id="9ead18a42f"><rect x="0" width="8" y="0" height="20"/></clipPath><clipPath id="e85b2d81cf"><path d="M 68.234375 86.3125 L 75.765625 86.3125 L 75.765625 113.105469 L 68.234375 113.105469 Z M 68.234375 86.3125 " clip-rule="nonzero"/></clipPath><clipPath id="c3057329ac"><path d="M 71.609375 86.3125 L 72.390625 86.3125 C 73.285156 86.3125 74.144531 86.667969 74.777344 87.300781 C 75.410156 87.933594 75.765625 88.792969 75.765625 89.6875 L 75.765625 109.707031 C 75.765625 110.601562 75.410156 111.460938 74.777344 112.09375 C 74.144531 112.726562 73.285156 113.082031 72.390625 113.082031 L 71.609375 113.082031 C 70.714844 113.082031 69.855469 112.726562 69.222656 112.09375 C 68.589844 111.460938 68.234375 110.601562 68.234375 109.707031 L 68.234375 89.6875 C 68.234375 88.792969 68.589844 87.933594 69.222656 87.300781 C 69.855469 86.667969 70.714844 86.3125 71.609375 86.3125 Z M 71.609375 86.3125 " clip-rule="nonzero"/></clipPath><clipPath id="152279cd60"><path d="M 0.234375 0.3125 L 7.765625 0.3125 L 7.765625 27.105469 L 0.234375 27.105469 Z M 0.234375 0.3125 " clip-rule="nonzero"/></clipPath><clipPath id="c6e747fe1f"><path d="M 3.609375 0.3125 L 4.390625 0.3125 C 5.285156 0.3125 6.144531 0.667969 6.777344 1.300781 C 7.410156 1.933594 7.765625 2.792969 7.765625 3.6875 L 7.765625 23.707031 C 7.765625 24.601562 7.410156 25.460938 6.777344 26.09375 C 6.144531 26.726562 5.285156 27.082031 4.390625 27.082031 L 3.609375 27.082031 C 2.714844 27.082031 1.855469 26.726562 1.222656 26.09375 C 0.589844 25.460938 0.234375 24.601562 0.234375 23.707031 L 0.234375 3.6875 C 0.234375 2.792969 0.589844 1.933594 1.222656 1.300781 C 1.855469 0.667969 2.714844 0.3125 3.609375 0.3125 Z M 3.609375 0.3125 " clip-rule="nonzero"/></clipPath><clipPath id="b6fb47d2a6"><rect x="0" width="8" y="0" height="28"/></clipPath><clipPath id="48ef08c0be"><path d="M 79.109375 77.945312 L 86.640625 77.945312 L 86.640625 113.089844 L 79.109375 113.089844 Z M 79.109375 77.945312 " clip-rule="nonzero"/></clipPath><clipPath id="480b6fa0b8"><path d="M 82.484375 77.945312 L 83.265625 77.945312 C 84.160156 77.945312 85.019531 78.300781 85.652344 78.933594 C 86.285156 79.570312 86.640625 80.425781 86.640625 81.320312 L 86.640625 109.707031 C 86.640625 110.601562 86.285156 111.460938 85.652344 112.09375 C 85.019531 112.726562 84.160156 113.082031 83.265625 113.082031 L 82.484375 113.082031 C 81.589844 113.082031 80.730469 112.726562 80.097656 112.09375 C 79.464844 111.460938 79.109375 110.601562 79.109375 109.707031 L 79.109375 81.320312 C 79.109375 80.425781 79.464844 79.570312 80.097656 78.933594 C 80.730469 78.300781 81.589844 77.945312 82.484375 77.945312 Z M 82.484375 77.945312 " clip-rule="nonzero"/></clipPath><clipPath id="e3ae744f86"><path d="M 0.109375 0.945312 L 7.640625 0.945312 L 7.640625 36.089844 L 0.109375 36.089844 Z M 0.109375 0.945312 " clip-rule="nonzero"/></clipPath><clipPath id="f3037dd6ad"><path d="M 3.484375 0.945312 L 4.265625 0.945312 C 5.160156 0.945312 6.019531 1.300781 6.652344 1.933594 C 7.285156 2.570312 7.640625 3.425781 7.640625 4.320312 L 7.640625 32.707031 C 7.640625 33.601562 7.285156 34.460938 6.652344 35.09375 C 6.019531 35.726562 5.160156 36.082031 4.265625 36.082031 L 3.484375 36.082031 C 2.589844 36.082031 1.730469 35.726562 1.097656 35.09375 C 0.464844 34.460938 0.109375 33.601562 0.109375 32.707031 L 0.109375 4.320312 C 0.109375 3.425781 0.464844 2.570312 1.097656 1.933594 C 1.730469 1.300781 2.589844 0.945312 3.484375 0.945312 Z M 3.484375 0.945312 " clip-rule="nonzero"/></clipPath><clipPath id="94be9d52e4"><rect x="0" width="8" y="0" height="37"/></clipPath><clipPath id="b48b441a65"><path d="M 89.984375 69.582031 L 97.515625 69.582031 L 97.515625 113.109375 L 89.984375 113.109375 Z M 89.984375 69.582031 " clip-rule="nonzero"/></clipPath><clipPath id="d5bf28efd5"><path d="M 93.359375 69.582031 L 94.140625 69.582031 C 95.035156 69.582031 95.894531 69.9375 96.527344 70.570312 C 97.160156 71.203125 97.515625 72.0625 97.515625 72.957031 L 97.515625 109.707031 C 97.515625 110.601562 97.160156 111.460938 96.527344 112.09375 C 95.894531 112.726562 95.035156 113.082031 94.140625 113.082031 L 93.359375 113.082031 C 92.464844 113.082031 91.605469 112.726562 90.972656 112.09375 C 90.339844 111.460938 89.984375 110.601562 89.984375 109.707031 L 89.984375 72.957031 C 89.984375 72.0625 90.339844 71.203125 90.972656 70.570312 C 91.605469 69.9375 92.464844 69.582031 93.359375 69.582031 Z M 93.359375 69.582031 " clip-rule="nonzero"/></clipPath><clipPath id="c0e863dfb0"><path d="M 0.984375 0.582031 L 8.515625 0.582031 L 8.515625 44.109375 L 0.984375 44.109375 Z M 0.984375 0.582031 " clip-rule="nonzero"/></clipPath><clipPath id="e69a004d96"><path d="M 4.359375 0.582031 L 5.140625 0.582031 C 6.035156 0.582031 6.894531 0.9375 7.527344 1.570312 C 8.160156 2.203125 8.515625 3.0625 8.515625 3.957031 L 8.515625 40.707031 C 8.515625 41.601562 8.160156 42.460938 7.527344 43.09375 C 6.894531 43.726562 6.035156 44.082031 5.140625 44.082031 L 4.359375 44.082031 C 3.464844 44.082031 2.605469 43.726562 1.972656 43.09375 C 1.339844 42.460938 0.984375 41.601562 0.984375 40.707031 L 0.984375 3.957031 C 0.984375 3.0625 1.339844 2.203125 1.972656 1.570312 C 2.605469 0.9375 3.464844 0.582031 4.359375 0.582031 Z M 4.359375 0.582031 " clip-rule="nonzero"/></clipPath><clipPath id="82ed67ee65"><rect x="0" width="9" y="0" height="45"/></clipPath><clipPath id="ab0a306c9c"><path d="M 43.328125 79 L 49 79 L 49 85 L 43.328125 85 Z M 43.328125 79 " clip-rule="nonzero"/></clipPath><clipPath id="6c64faddcf"><path d="M 51 83 L 57 83 L 57 88.269531 L 51 88.269531 Z M 51 83 " clip-rule="nonzero"/></clipPath><clipPath id="6026466f14"><path d="M 59 74 L 65.078125 74 L 65.078125 81 L 59 81 Z M 59 74 " clip-rule="nonzero"/></clipPath><clipPath id="0510625f20"><path d="M 51 66.519531 L 57 66.519531 L 57 72 L 51 72 Z M 51 66.519531 " clip-rule="nonzero"/></clipPath><clipPath id="9457303bf9"><path d="M 43.328125 69 L 49 69 L 49 75 L 43.328125 75 Z M 43.328125 69 " clip-rule="nonzero"/></clipPath></defs><g clip-path="url(#6d565d659a)"><g clip-path="url(#47ad42ade9)"><g transform="matrix(1, 0, 0, 1, 36, 27)"><g clip-path="url(#04f6320bdb)"><g clip-path="url(#7c108ffaa2)"><g clip-path="url(#da57e0531b)"><path fill="#ffffff" d="M 0 0 L 72 0 L 72 92.25 L 0 92.25 Z M 0 0 " fill-opacity="1" fill-rule="nonzero"/></g></g></g></g></g></g><g clip-path="url(#83dde93812)"><g clip-path="url(#e2286490d9)"><g transform="matrix(1, 0, 0, 1, 72, 51)"><g clip-path="url(#c5ee035fe6)"><g clip-path="url(#5efc85faa7)"><g clip-path="url(#47e4ab3571)"><path fill="#ffffff" d="M 0 0 L 5.25 0 L 5.25 5.25 L 0 5.25 Z M 0 0 " fill-opacity="1" fill-rule="nonzero"/></g></g></g></g></g></g><g clip-path="url(#02d60980b7)"><g clip-path="url(#81cf7c62a1)"><g transform="matrix(1, 0, 0, 1, 88, 26)"><g clip-path="url(#d6d6c43e11)"><g clip-path="url(#915520bb9f)"><g clip-path="url(#438e74d916)"><path fill="#dceff4" d="M 0.375 0.101562 L 20.625 0.101562 L 20.625 20.351562 L 0.375 20.351562 Z M 0.375 0.101562 " fill-opacity="1" fill-rule="nonzero"/></g></g></g></g></g></g><g clip-path="url(#d6b45df47e)"><g clip-path="url(#f7e64aa361)"><g transform="matrix(1, 0, 0, 1, 51, 51)"><g clip-path="url(#66048ddf4c)"><g clip-path="url(#e62cbdc629)"><g clip-path="url(#b9f4b28017)"><path fill="#94a3b8" d="M 0 0 L 28.492188 0 L 28.492188 4.5 L 0 4.5 Z M 0 0 " fill-opacity="1" fill-rule="nonzero"/></g></g></g></g></g></g><g clip-path="url(#04a8c8ed1b)"><g clip-path="url(#773051548b)"><g transform="matrix(1, 0, 0, 1, 27, 22)"><g clip-path="url(#765b969197)"><g clip-path="url(#f06913a731)"><g clip-path="url(#af9a002856)"><path fill="#0891b2" d="M 0 0.5 L 42.730469 0.5 L 42.730469 25.25 L 0 25.25 Z M 0 0.5 " fill-opacity="1" fill-rule="nonzero"/></g></g></g></g></g></g><g fill="#ffffff" fill-opacity="1"><g transform="translate(35.61328, 40.5)"><g><path d="M 0.9375 0 L 0.9375 -12.375 L 5.453125 -12.375 L 7.046875 -7.546875 C 7.128906 -7.253906 7.226562 -6.867188 7.34375 -6.390625 C 7.457031 -5.921875 7.570312 -5.414062 7.6875 -4.875 C 7.8125 -4.34375 7.921875 -3.828125 8.015625 -3.328125 C 8.117188 -2.835938 8.203125 -2.421875 8.265625 -2.078125 L 7.65625 -2.078125 C 7.726562 -2.421875 7.8125 -2.835938 7.90625 -3.328125 C 8 -3.828125 8.101562 -4.34375 8.21875 -4.875 C 8.34375 -5.414062 8.460938 -5.921875 8.578125 -6.390625 C 8.691406 -6.859375 8.789062 -7.242188 8.875 -7.546875 L 10.4375 -12.375 L 14.984375 -12.375 L 14.984375 0 L 12.03125 0 L 12.03125 -5.34375 C 12.03125 -5.613281 12.035156 -5.960938 12.046875 -6.390625 C 12.054688 -6.828125 12.066406 -7.296875 12.078125 -7.796875 C 12.097656 -8.296875 12.113281 -8.800781 12.125 -9.3125 C 12.144531 -9.820312 12.15625 -10.300781 12.15625 -10.75 L 12.375 -10.75 C 12.257812 -10.269531 12.140625 -9.769531 12.015625 -9.25 C 11.890625 -8.726562 11.757812 -8.21875 11.625 -7.71875 C 11.488281 -7.226562 11.359375 -6.773438 11.234375 -6.359375 C 11.117188 -5.953125 11.019531 -5.613281 10.9375 -5.34375 L 9.1875 0 L 6.734375 0 L 4.953125 -5.34375 C 4.867188 -5.613281 4.765625 -5.953125 4.640625 -6.359375 C 4.515625 -6.773438 4.382812 -7.226562 4.25 -7.71875 C 4.125 -8.207031 3.992188 -8.710938 3.859375 -9.234375 C 3.722656 -9.753906 3.597656 -10.257812 3.484375 -10.75 L 3.75 -10.75 C 3.75 -10.320312 3.753906 -9.847656 3.765625 -9.328125 C 3.773438 -8.816406 3.785156 -8.304688 3.796875 -7.796875 C 3.816406 -7.296875 3.832031 -6.828125 3.84375 -6.390625 C 3.851562 -5.960938 3.859375 -5.613281 3.859375 -5.34375 L 3.859375 0 Z M 0.9375 0 "/></g></g></g><g fill="#ffffff" fill-opacity="1"><g transform="translate(51.510267, 40.5)"><g><path d="M 0.9375 0 L 0.9375 -12.375 L 3.875 -12.375 L 3.875 -2.421875 L 9.109375 -2.421875 L 9.109375 0 Z M 0.9375 0 "/></g></g></g><g clip-path="url(#41c69363cf)"><g clip-path="url(#5c4a06c93c)"><g transform="matrix(1, 0, 0, 1, 51, 60)"><g clip-path="url(#ca06f1ee3c)"><g clip-path="url(#f8791712a8)"><g clip-path="url(#3e83f5e854)"><path fill="#cbd5e1" d="M 0 0 L 40.5 0 L 40.5 4.5 L 0 4.5 Z M 0 0 " fill-opacity="1" fill-rule="nonzero"/></g></g></g></g></g></g><g clip-path="url(#b2ea624cdc)"><g clip-path="url(#ee8d699fc6)"><g transform="matrix(1, 0, 0, 1, 46, 103)"><g clip-path="url(#6bda22565e)"><g clip-path="url(#d40cbe36a4)"><g clip-path="url(#ec8eedd146)"><path fill="#16a34a" d="M 0.484375 0.0429688 L 8.015625 0.0429688 L 8.015625 10.070312 L 0.484375 10.070312 Z M 0.484375 0.0429688 " fill-opacity="1" fill-rule="nonzero"/></g></g></g></g></g></g><g clip-path="url(#54bec85a9c)"><g clip-path="url(#30f91046fc)"><g transform="matrix(1, 0, 0, 1, 57, 94)"><g clip-path="url(#9ead18a42f)"><g clip-path="url(#04469bfdfd)"><g clip-path="url(#8d439404e9)"><path fill="#65a30d" d="M 0.359375 0.675781 L 7.890625 0.675781 L 7.890625 19.089844 L 0.359375 19.089844 Z M 0.359375 0.675781 " fill-opacity="1" fill-rule="nonzero"/></g></g></g></g></g></g><g clip-path="url(#e85b2d81cf)"><g clip-path="url(#c3057329ac)"><g transform="matrix(1, 0, 0, 1, 68, 86)"><g clip-path="url(#b6fb47d2a6)"><g clip-path="url(#152279cd60)"><g clip-path="url(#c6e747fe1f)"><path fill="#d97706" d="M 0.234375 0.3125 L 7.765625 0.3125 L 7.765625 27.074219 L 0.234375 27.074219 Z M 0.234375 0.3125 " fill-opacity="1" fill-rule="nonzero"/></g></g></g></g></g></g><g clip-path="url(#48ef08c0be)"><g clip-path="url(#480b6fa0b8)"><g transform="matrix(1, 0, 0, 1, 79, 77)"><g clip-path="url(#94be9d52e4)"><g clip-path="url(#e3ae744f86)"><g clip-path="url(#f3037dd6ad)"><path fill="#ea580c" d="M 0.109375 0.945312 L 7.640625 0.945312 L 7.640625 36.089844 L 0.109375 36.089844 Z M 0.109375 0.945312 " fill-opacity="1" fill-rule="nonzero"/></g></g></g></g></g></g><g clip-path="url(#b48b441a65)"><g clip-path="url(#d5bf28efd5)"><g transform="matrix(1, 0, 0, 1, 89, 69)"><g clip-path="url(#82ed67ee65)"><g clip-path="url(#c0e863dfb0)"><g clip-path="url(#e69a004d96)"><path fill="#b40000" d="M 0.984375 0.582031 L 8.515625 0.582031 L 8.515625 44.078125 L 0.984375 44.078125 Z M 0.984375 0.582031 " fill-opacity="1" fill-rule="nonzero"/></g></g></g></g></g></g><path fill="#68607c" d="M 47.324219 71.25 L 52.574219 69.335938 L 52.832031 70.042969 L 47.582031 71.953125 Z M 47.324219 71.25 " fill-opacity="1" fill-rule="nonzero"/><path fill="#68607c" d="M 55.0625 70.535156 L 55.59375 70.003906 L 61.59375 76.003906 L 61.0625 76.535156 Z M 55.0625 70.535156 " fill-opacity="1" fill-rule="nonzero"/><path fill="#68607c" d="M 56.027344 76.894531 L 56.128906 76.152344 L 60.628906 76.769531 L 60.527344 77.511719 Z M 56.027344 76.894531 " fill-opacity="1" fill-rule="nonzero"/><path fill="#68607c" d="M 46.910156 73.042969 L 47.246094 72.371094 L 53.246094 75.371094 L 52.910156 76.042969 Z M 46.910156 73.042969 " fill-opacity="1" fill-rule="nonzero"/><path fill="#68607c" d="M 47.160156 82.917969 L 47.496094 82.246094 L 52.867188 84.933594 L 52.53125 85.605469 Z M 47.160156 82.917969 " fill-opacity="1" fill-rule="nonzero"/><path fill="#68607c" d="M 53.828125 77.769531 L 54.578125 77.769531 L 54.578125 84.144531 L 53.828125 84.144531 Z M 53.828125 77.769531 " fill-opacity="1" fill-rule="nonzero"/><path fill="#68607c" d="M 46.605469 80.1875 L 52.925781 70.445312 L 53.554688 70.851562 L 47.234375 80.597656 Z M 46.605469 80.1875 " fill-opacity="1" fill-rule="nonzero"/><path fill="#68607c" d="M 55.1875 84.445312 L 61.109375 78.261719 L 61.648438 78.777344 L 55.730469 84.964844 Z M 55.1875 84.445312 " fill-opacity="1" fill-rule="nonzero"/><path fill="#68607c" d="M 46.585938 73.9375 L 47.230469 73.554688 L 53.410156 83.953125 L 52.765625 84.335938 Z M 46.585938 73.9375 " fill-opacity="1" fill-rule="nonzero"/><g clip-path="url(#ab0a306c9c)"><path fill="#4e9bb9" d="M 48.578125 81.894531 C 48.578125 82.316406 48.480469 82.714844 48.300781 83.066406 C 47.875 83.929688 46.980469 84.519531 45.953125 84.519531 C 44.503906 84.519531 43.328125 83.347656 43.328125 81.894531 C 43.328125 80.441406 44.503906 79.269531 45.953125 79.269531 C 46.484375 79.269531 46.96875 79.421875 47.378906 79.691406 C 48.101562 80.160156 48.578125 80.96875 48.578125 81.894531 Z M 48.578125 81.894531 " fill-opacity="1" fill-rule="nonzero"/></g><g clip-path="url(#6c64faddcf)"><path fill="#91cbd7" d="M 56.195312 83.9375 C 56.59375 84.394531 56.828125 84.992188 56.828125 85.644531 C 56.828125 87.097656 55.65625 88.269531 54.203125 88.269531 C 52.753906 88.269531 51.578125 87.097656 51.578125 85.644531 C 51.578125 85.339844 51.632812 85.050781 51.726562 84.78125 C 51.90625 84.253906 52.25 83.808594 52.699219 83.492188 C 53.125 83.191406 53.640625 83.019531 54.203125 83.019531 C 55.003906 83.019531 55.71875 83.375 56.195312 83.9375 Z M 56.195312 83.9375 " fill-opacity="1" fill-rule="nonzero"/></g><g clip-path="url(#6026466f14)"><path fill="#ffd086" d="M 62.453125 74.769531 C 63.90625 74.769531 65.078125 75.941406 65.078125 77.394531 C 65.078125 78.847656 63.90625 80.019531 62.453125 80.019531 C 61.75 80.019531 61.113281 79.746094 60.644531 79.289062 C 60.140625 78.816406 59.828125 78.140625 59.828125 77.394531 C 59.828125 77.273438 59.835938 77.160156 59.855469 77.042969 C 59.929688 76.457031 60.199219 75.9375 60.597656 75.539062 C 61.074219 75.0625 61.726562 74.769531 62.453125 74.769531 Z M 62.453125 74.769531 " fill-opacity="1" fill-rule="nonzero"/></g><path fill="#ed6571" d="M 56.804688 76.621094 C 56.632812 77.90625 55.535156 78.894531 54.203125 78.894531 C 52.753906 78.894531 51.578125 77.722656 51.578125 76.269531 C 51.578125 75.847656 51.675781 75.449219 51.855469 75.097656 C 52.285156 74.234375 53.175781 73.644531 54.203125 73.644531 C 55.65625 73.644531 56.828125 74.816406 56.828125 76.269531 C 56.828125 76.390625 56.820312 76.503906 56.804688 76.621094 Z M 56.804688 76.621094 " fill-opacity="1" fill-rule="nonzero"/><g clip-path="url(#0510625f20)"><path fill="#f69489" d="M 54.203125 66.519531 C 55.65625 66.519531 56.828125 67.691406 56.828125 69.144531 C 56.828125 69.871094 56.535156 70.523438 56.058594 71 C 55.585938 71.476562 54.929688 71.769531 54.203125 71.769531 C 53.675781 71.769531 53.1875 71.617188 52.777344 71.347656 C 52.304688 71.042969 51.929688 70.585938 51.738281 70.039062 C 51.636719 69.761719 51.578125 69.460938 51.578125 69.144531 C 51.578125 67.691406 52.753906 66.519531 54.203125 66.519531 Z M 54.203125 66.519531 " fill-opacity="1" fill-rule="nonzero"/></g><g clip-path="url(#9457303bf9)"><path fill="#91cbd7" d="M 48.421875 71.25 C 48.523438 71.527344 48.578125 71.828125 48.578125 72.144531 C 48.578125 72.566406 48.480469 72.964844 48.300781 73.316406 C 48.078125 73.769531 47.726562 74.144531 47.296875 74.398438 C 46.90625 74.632812 46.445312 74.769531 45.953125 74.769531 C 44.503906 74.769531 43.328125 73.597656 43.328125 72.144531 C 43.328125 70.691406 44.503906 69.519531 45.953125 69.519531 C 47.089844 69.519531 48.054688 70.238281 48.421875 71.25 Z M 48.421875 71.25 " fill-opacity="1" fill-rule="nonzero"/></g></svg>