<svg xmlns="http://www.w3.org/2000/svg" xmlns:xlink="http://www.w3.org/1999/xlink" width="1024" zoomAndPan="magnify" viewBox="0 0 768 767.999994" height="1024" preserveAspectRatio="xMidYMid meet" version="1.0"><defs><g/><clipPath id="303106be97"><path d="M 114 35 L 686.238281 35 L 686.238281 768 L 114 768 Z M 114 35 " clip-rule="nonzero"/></clipPath><clipPath id="ab4ee78091"><path d="M 170.703125 35.722656 L 630.238281 35.722656 C 661.167969 35.722656 686.238281 60.792969 686.238281 91.722656 L 686.238281 712 C 686.238281 742.929688 661.167969 768 630.238281 768 L 170.703125 768 C 139.777344 768 114.703125 742.929688 114.703125 712 L 114.703125 91.722656 C 114.703125 60.792969 139.777344 35.722656 170.703125 35.722656 Z M 170.703125 35.722656 " clip-rule="nonzero"/></clipPath><clipPath id="1c29c6e635"><path d="M 0.480469 0.519531 L 572.238281 0.519531 L 572.238281 733 L 0.480469 733 Z M 0.480469 0.519531 " clip-rule="nonzero"/></clipPath><clipPath id="8ed1d07069"><path d="M 56.703125 0.722656 L 516.238281 0.722656 C 547.167969 0.722656 572.238281 25.792969 572.238281 56.722656 L 572.238281 677 C 572.238281 707.929688 547.167969 733 516.238281 733 L 56.703125 733 C 25.777344 733 0.703125 707.929688 0.703125 677 L 0.703125 56.722656 C 0.703125 25.792969 25.777344 0.722656 56.703125 0.722656 Z M 56.703125 0.722656 " clip-rule="nonzero"/></clipPath><clipPath id="d31c6074a0"><rect x="0" width="573" y="0" height="733"/></clipPath><clipPath id="69a9082131"><path d="M 384 272 L 412 272 L 412 300 L 384 300 Z M 384 272 " clip-rule="nonzero"/></clipPath><clipPath id="9299430d05"><path d="M 398 272 C 390.269531 272 384 278.269531 384 286 C 384 293.730469 390.269531 300 398 300 C 405.730469 300 412 293.730469 412 286 C 412 278.269531 405.730469 272 398 272 Z M 398 272 " clip-rule="nonzero"/></clipPath><clipPath id="8fd8da95b6"><path d="M 0 0 L 28 0 L 28 28 L 0 28 Z M 0 0 " clip-rule="nonzero"/></clipPath><clipPath id="ff1adb2aa4"><path d="M 14 0 C 6.269531 0 0 6.269531 0 14 C 0 21.730469 6.269531 28 14 28 C 21.730469 28 28 21.730469 28 14 C 28 6.269531 21.730469 0 14 0 Z M 14 0 " clip-rule="nonzero"/></clipPath><clipPath id="adc0020193"><rect x="0" width="28" y="0" height="28"/></clipPath><clipPath id="d0ca5efc45"><path d="M 487.457031 33 L 643.804688 33 L 643.804688 189.320312 L 487.457031 189.320312 Z M 487.457031 33 " clip-rule="nonzero"/></clipPath><clipPath id="4434150951"><path d="M 640.199219 189.320312 L 495.457031 189.320312 C 493.335938 189.320312 491.300781 188.476562 489.800781 186.976562 C 488.296875 185.476562 487.457031 183.441406 487.457031 181.320312 L 487.457031 36.578125 C 487.457031 35.238281 488.261719 34.027344 489.5 33.515625 C 490.738281 33.003906 492.164062 33.285156 493.113281 34.234375 L 642.542969 183.664062 C 643.492188 184.613281 643.773438 186.035156 643.261719 187.273438 C 642.75 188.511719 641.539062 189.320312 640.199219 189.320312 Z M 640.199219 189.320312 " clip-rule="nonzero"/></clipPath><clipPath id="7883bec26b"><path d="M 0.457031 0 L 156.804688 0 L 156.804688 156.320312 L 0.457031 156.320312 Z M 0.457031 0 " clip-rule="nonzero"/></clipPath><clipPath id="009fa1df2a"><path d="M 153.199219 156.320312 L 8.457031 156.320312 C 6.335938 156.320312 4.300781 155.476562 2.800781 153.976562 C 1.296875 152.476562 0.457031 150.441406 0.457031 148.320312 L 0.457031 3.578125 C 0.457031 2.238281 1.261719 1.027344 2.5 0.515625 C 3.738281 0.00390625 5.164062 0.285156 6.113281 1.234375 L 155.542969 150.664062 C 156.492188 151.613281 156.773438 153.035156 156.261719 154.273438 C 155.75 155.511719 154.539062 156.320312 153.199219 156.320312 Z M 153.199219 156.320312 " clip-rule="nonzero"/></clipPath><clipPath id="4dabe63bf7"><rect x="0" width="157" y="0" height="157"/></clipPath><clipPath id="e79ab88ca3"><path d="M 190.773438 226.234375 L 417.097656 226.234375 L 417.097656 261.953125 L 190.773438 261.953125 Z M 190.773438 226.234375 " clip-rule="nonzero"/></clipPath><clipPath id="676a49cf6b"><path d="M 202.773438 226.234375 L 405.007812 226.234375 C 408.1875 226.234375 411.242188 227.496094 413.492188 229.746094 C 415.742188 231.996094 417.007812 235.050781 417.007812 238.234375 L 417.007812 249.953125 C 417.007812 253.136719 415.742188 256.1875 413.492188 258.4375 C 411.242188 260.6875 408.1875 261.953125 405.007812 261.953125 L 202.773438 261.953125 C 199.589844 261.953125 196.539062 260.6875 194.289062 258.4375 C 192.039062 256.1875 190.773438 253.136719 190.773438 249.953125 L 190.773438 238.234375 C 190.773438 235.050781 192.039062 231.996094 194.289062 229.746094 C 196.539062 227.496094 199.589844 226.234375 202.773438 226.234375 Z M 202.773438 226.234375 " clip-rule="nonzero"/></clipPath><clipPath id="7aeb0717d0"><path d="M 0.773438 0.234375 L 227 0.234375 L 227 35.953125 L 0.773438 35.953125 Z M 0.773438 0.234375 " clip-rule="nonzero"/></clipPath><clipPath id="3e618ce51b"><path d="M 12.773438 0.234375 L 215.007812 0.234375 C 218.1875 0.234375 221.242188 1.496094 223.492188 3.746094 C 225.742188 5.996094 227.007812 9.050781 227.007812 12.234375 L 227.007812 23.953125 C 227.007812 27.136719 225.742188 30.1875 223.492188 32.4375 C 221.242188 34.6875 218.1875 35.953125 215.007812 35.953125 L 12.773438 35.953125 C 9.589844 35.953125 6.539062 34.6875 4.289062 32.4375 C 2.039062 30.1875 0.773438 27.136719 0.773438 23.953125 L 0.773438 12.234375 C 0.773438 9.050781 2.039062 5.996094 4.289062 3.746094 C 6.539062 1.496094 9.589844 0.234375 12.773438 0.234375 Z M 12.773438 0.234375 " clip-rule="nonzero"/></clipPath><clipPath id="3b5ce6ca7b"><rect x="0" width="228" y="0" height="36"/></clipPath><clipPath id="a0175c2e74"><path d="M 0.261719 0 L 340 0 L 340 196.464844 L 0.261719 196.464844 Z M 0.261719 0 " clip-rule="nonzero"/></clipPath><clipPath id="ffb2d62b2d"><path d="M 75.261719 0 L 264.609375 0 C 284.503906 0 303.578125 7.902344 317.644531 21.96875 C 331.710938 36.03125 339.609375 55.109375 339.609375 75 L 339.609375 121.464844 C 339.609375 141.355469 331.710938 160.433594 317.644531 174.5 C 303.578125 188.5625 284.503906 196.464844 264.609375 196.464844 L 75.261719 196.464844 C 55.371094 196.464844 36.292969 188.5625 22.230469 174.5 C 8.164062 160.433594 0.261719 141.355469 0.261719 121.464844 L 0.261719 75 C 0.261719 55.109375 8.164062 36.03125 22.230469 21.96875 C 36.292969 7.902344 55.371094 0 75.261719 0 Z M 75.261719 0 " clip-rule="nonzero"/></clipPath><clipPath id="efa175d345"><path d="M 0.261719 0 L 339.800781 0 L 339.800781 196.464844 L 0.261719 196.464844 Z M 0.261719 0 " clip-rule="nonzero"/></clipPath><clipPath id="d41706a133"><path d="M 75.261719 0 L 264.609375 0 C 284.503906 0 303.578125 7.902344 317.644531 21.96875 C 331.710938 36.03125 339.609375 55.109375 339.609375 75 L 339.609375 121.464844 C 339.609375 141.355469 331.710938 160.433594 317.644531 174.5 C 303.578125 188.5625 284.503906 196.464844 264.609375 196.464844 L 75.261719 196.464844 C 55.371094 196.464844 36.292969 188.5625 22.230469 174.5 C 8.164062 160.433594 0.261719 141.355469 0.261719 121.464844 L 0.261719 75 C 0.261719 55.109375 8.164062 36.03125 22.230469 21.96875 C 36.292969 7.902344 55.371094 0 75.261719 0 Z M 75.261719 0 " clip-rule="nonzero"/></clipPath><clipPath id="a3b5799f8d"><rect x="0" width="340" y="0" height="197"/></clipPath><clipPath id="b7580caf13"><path d="M 190.773438 297.675781 L 512.261719 297.675781 L 512.261719 333.394531 L 190.773438 333.394531 Z M 190.773438 297.675781 " clip-rule="nonzero"/></clipPath><clipPath id="bd4bf2dfae"><path d="M 202.773438 297.675781 L 500.261719 297.675781 C 503.445312 297.675781 506.496094 298.9375 508.746094 301.1875 C 510.996094 303.441406 512.261719 306.492188 512.261719 309.675781 L 512.261719 321.394531 C 512.261719 324.578125 510.996094 327.628906 508.746094 329.878906 C 506.496094 332.132812 503.445312 333.394531 500.261719 333.394531 L 202.773438 333.394531 C 199.589844 333.394531 196.539062 332.132812 194.289062 329.878906 C 192.039062 327.628906 190.773438 324.578125 190.773438 321.394531 L 190.773438 309.675781 C 190.773438 306.492188 192.039062 303.441406 194.289062 301.1875 C 196.539062 298.9375 199.589844 297.675781 202.773438 297.675781 Z M 202.773438 297.675781 " clip-rule="nonzero"/></clipPath><clipPath id="bbb74a3df5"><path d="M 0.773438 0.675781 L 322.261719 0.675781 L 322.261719 36.394531 L 0.773438 36.394531 Z M 0.773438 0.675781 " clip-rule="nonzero"/></clipPath><clipPath id="a795b3c769"><path d="M 12.773438 0.675781 L 310.261719 0.675781 C 313.445312 0.675781 316.496094 1.9375 318.746094 4.1875 C 320.996094 6.441406 322.261719 9.492188 322.261719 12.675781 L 322.261719 24.394531 C 322.261719 27.578125 320.996094 30.628906 318.746094 32.878906 C 316.496094 35.132812 313.445312 36.394531 310.261719 36.394531 L 12.773438 36.394531 C 9.589844 36.394531 6.539062 35.132812 4.289062 32.878906 C 2.039062 30.628906 0.773438 27.578125 0.773438 24.394531 L 0.773438 12.675781 C 0.773438 9.492188 2.039062 6.441406 4.289062 4.1875 C 6.539062 1.9375 9.589844 0.675781 12.773438 0.675781 Z M 12.773438 0.675781 " clip-rule="nonzero"/></clipPath><clipPath id="abb1e41b05"><rect x="0" width="323" y="0" height="37"/></clipPath><clipPath id="327a636ec7"><path d="M 154.9375 639.351562 L 214.703125 639.351562 L 214.703125 719.191406 L 154.9375 719.191406 Z M 154.9375 639.351562 " clip-rule="nonzero"/></clipPath><clipPath id="350b6d8f34"><path d="M 158.3125 639.351562 L 211.328125 639.351562 C 212.222656 639.351562 213.082031 639.707031 213.714844 640.339844 C 214.347656 640.972656 214.703125 641.828125 214.703125 642.726562 L 214.703125 715.660156 C 214.703125 716.554688 214.347656 717.414062 213.714844 718.046875 C 213.082031 718.679688 212.222656 719.035156 211.328125 719.035156 L 158.3125 719.035156 C 157.417969 719.035156 156.558594 718.679688 155.925781 718.046875 C 155.292969 717.414062 154.9375 716.554688 154.9375 715.660156 L 154.9375 642.726562 C 154.9375 641.828125 155.292969 640.972656 155.925781 640.339844 C 156.558594 639.707031 157.417969 639.351562 158.3125 639.351562 Z M 158.3125 639.351562 " clip-rule="nonzero"/></clipPath><clipPath id="dd590d5206"><path d="M 0.9375 0.351562 L 60.703125 0.351562 L 60.703125 80 L 0.9375 80 Z M 0.9375 0.351562 " clip-rule="nonzero"/></clipPath><clipPath id="5c0bb30c3e"><path d="M 4.3125 0.351562 L 57.328125 0.351562 C 58.222656 0.351562 59.082031 0.707031 59.714844 1.339844 C 60.347656 1.972656 60.703125 2.828125 60.703125 3.726562 L 60.703125 76.660156 C 60.703125 77.554688 60.347656 78.414062 59.714844 79.046875 C 59.082031 79.679688 58.222656 80.035156 57.328125 80.035156 L 4.3125 80.035156 C 3.417969 80.035156 2.558594 79.679688 1.925781 79.046875 C 1.292969 78.414062 0.9375 77.554688 0.9375 76.660156 L 0.9375 3.726562 C 0.9375 2.828125 1.292969 1.972656 1.925781 1.339844 C 2.558594 0.707031 3.417969 0.351562 4.3125 0.351562 Z M 4.3125 0.351562 " clip-rule="nonzero"/></clipPath><clipPath id="a10b02c1af"><rect x="0" width="61" y="0" height="81"/></clipPath><clipPath id="bbf23c5ac2"><path d="M 241.265625 572.945312 L 301.027344 572.945312 L 301.027344 719.085938 L 241.265625 719.085938 Z M 241.265625 572.945312 " clip-rule="nonzero"/></clipPath><clipPath id="3d0f30d4da"><path d="M 244.640625 572.945312 L 297.652344 572.945312 C 298.546875 572.945312 299.40625 573.300781 300.039062 573.933594 C 300.671875 574.566406 301.027344 575.425781 301.027344 576.320312 L 301.027344 715.660156 C 301.027344 716.554688 300.671875 717.414062 300.039062 718.046875 C 299.40625 718.679688 298.546875 719.035156 297.652344 719.035156 L 244.640625 719.035156 C 243.742188 719.035156 242.886719 718.679688 242.253906 718.046875 C 241.621094 717.414062 241.265625 716.554688 241.265625 715.660156 L 241.265625 576.320312 C 241.265625 575.425781 241.621094 574.566406 242.253906 573.933594 C 242.886719 573.300781 243.742188 572.945312 244.640625 572.945312 Z M 244.640625 572.945312 " clip-rule="nonzero"/></clipPath><clipPath id="b6859c7d3d"><path d="M 0.265625 0.945312 L 60.027344 0.945312 L 60.027344 147.039062 L 0.265625 147.039062 Z M 0.265625 0.945312 " clip-rule="nonzero"/></clipPath><clipPath id="bd5cba0fac"><path d="M 3.640625 0.945312 L 56.652344 0.945312 C 57.546875 0.945312 58.40625 1.300781 59.039062 1.933594 C 59.671875 2.566406 60.027344 3.425781 60.027344 4.320312 L 60.027344 143.660156 C 60.027344 144.554688 59.671875 145.414062 59.039062 146.046875 C 58.40625 146.679688 57.546875 147.035156 56.652344 147.035156 L 3.640625 147.035156 C 2.742188 147.035156 1.886719 146.679688 1.253906 146.046875 C 0.621094 145.414062 0.265625 144.554688 0.265625 143.660156 L 0.265625 4.320312 C 0.265625 3.425781 0.621094 2.566406 1.253906 1.933594 C 1.886719 1.300781 2.742188 0.945312 3.640625 0.945312 Z M 3.640625 0.945312 " clip-rule="nonzero"/></clipPath><clipPath id="e2111ecaac"><rect x="0" width="61" y="0" height="148"/></clipPath><clipPath id="a757dea543"><path d="M 327.589844 506.542969 L 387.351562 506.542969 L 387.351562 719.214844 L 327.589844 719.214844 Z M 327.589844 506.542969 " clip-rule="nonzero"/></clipPath><clipPath id="6a99db8431"><path d="M 330.964844 506.542969 L 383.976562 506.542969 C 384.875 506.542969 385.730469 506.898438 386.363281 507.53125 C 386.996094 508.164062 387.351562 509.019531 387.351562 509.917969 L 387.351562 715.660156 C 387.351562 716.554688 386.996094 717.414062 386.363281 718.046875 C 385.730469 718.679688 384.875 719.035156 383.976562 719.035156 L 330.964844 719.035156 C 330.070312 719.035156 329.210938 718.679688 328.578125 718.046875 C 327.945312 717.414062 327.589844 716.554688 327.589844 715.660156 L 327.589844 509.917969 C 327.589844 509.019531 327.945312 508.164062 328.578125 507.53125 C 329.210938 506.898438 330.070312 506.542969 330.964844 506.542969 Z M 330.964844 506.542969 " clip-rule="nonzero"/></clipPath><clipPath id="d2c0382917"><path d="M 0.589844 0.542969 L 60.351562 0.542969 L 60.351562 213 L 0.589844 213 Z M 0.589844 0.542969 " clip-rule="nonzero"/></clipPath><clipPath id="c0e572872e"><path d="M 3.964844 0.542969 L 56.976562 0.542969 C 57.875 0.542969 58.730469 0.898438 59.363281 1.53125 C 59.996094 2.164062 60.351562 3.019531 60.351562 3.917969 L 60.351562 209.660156 C 60.351562 210.554688 59.996094 211.414062 59.363281 212.046875 C 58.730469 212.679688 57.875 213.035156 56.976562 213.035156 L 3.964844 213.035156 C 3.070312 213.035156 2.210938 212.679688 1.578125 212.046875 C 0.945312 211.414062 0.589844 210.554688 0.589844 209.660156 L 0.589844 3.917969 C 0.589844 3.019531 0.945312 2.164062 1.578125 1.53125 C 2.210938 0.898438 3.070312 0.542969 3.964844 0.542969 Z M 3.964844 0.542969 " clip-rule="nonzero"/></clipPath><clipPath id="20bb5aa63a"><rect x="0" width="61" y="0" height="214"/></clipPath><clipPath id="4db789e6e2"><path d="M 413.914062 440.136719 L 473.679688 440.136719 L 473.679688 719.113281 L 413.914062 719.113281 Z M 413.914062 440.136719 " clip-rule="nonzero"/></clipPath><clipPath id="20db5407cf"><path d="M 417.289062 440.136719 L 470.304688 440.136719 C 471.199219 440.136719 472.058594 440.492188 472.691406 441.125 C 473.324219 441.757812 473.679688 442.617188 473.679688 443.511719 L 473.679688 715.660156 C 473.679688 716.554688 473.324219 717.414062 472.691406 718.046875 C 472.058594 718.679688 471.199219 719.035156 470.304688 719.035156 L 417.289062 719.035156 C 416.394531 719.035156 415.535156 718.679688 414.902344 718.046875 C 414.269531 717.414062 413.914062 716.554688 413.914062 715.660156 L 413.914062 443.511719 C 413.914062 442.617188 414.269531 441.757812 414.902344 441.125 C 415.535156 440.492188 416.394531 440.136719 417.289062 440.136719 Z M 417.289062 440.136719 " clip-rule="nonzero"/></clipPath><clipPath id="5acfac1f23"><path d="M 0.914062 0.136719 L 60.679688 0.136719 L 60.679688 279.039062 L 0.914062 279.039062 Z M 0.914062 0.136719 " clip-rule="nonzero"/></clipPath><clipPath id="8babd657bf"><path d="M 4.289062 0.136719 L 57.304688 0.136719 C 58.199219 0.136719 59.058594 0.492188 59.691406 1.125 C 60.324219 1.757812 60.679688 2.617188 60.679688 3.511719 L 60.679688 275.660156 C 60.679688 276.554688 60.324219 277.414062 59.691406 278.046875 C 59.058594 278.679688 58.199219 279.035156 57.304688 279.035156 L 4.289062 279.035156 C 3.394531 279.035156 2.535156 278.679688 1.902344 278.046875 C 1.269531 277.414062 0.914062 276.554688 0.914062 275.660156 L 0.914062 3.511719 C 0.914062 2.617188 1.269531 1.757812 1.902344 1.125 C 2.535156 0.492188 3.394531 0.136719 4.289062 0.136719 Z M 4.289062 0.136719 " clip-rule="nonzero"/></clipPath><clipPath id="66c93034af"><rect x="0" width="61" y="0" height="280"/></clipPath><clipPath id="9c04222af7"><path d="M 500.242188 373.734375 L 560.003906 373.734375 L 560.003906 719.242188 L 500.242188 719.242188 Z M 500.242188 373.734375 " clip-rule="nonzero"/></clipPath><clipPath id="30c8f76d86"><path d="M 503.617188 373.734375 L 556.628906 373.734375 C 557.523438 373.734375 558.382812 374.089844 559.015625 374.722656 C 559.648438 375.355469 560.003906 376.210938 560.003906 377.109375 L 560.003906 715.660156 C 560.003906 716.554688 559.648438 717.414062 559.015625 718.046875 C 558.382812 718.679688 557.523438 719.035156 556.628906 719.035156 L 503.617188 719.035156 C 502.71875 719.035156 501.863281 718.679688 501.230469 718.046875 C 500.597656 717.414062 500.242188 716.554688 500.242188 715.660156 L 500.242188 377.109375 C 500.242188 376.210938 500.597656 375.355469 501.230469 374.722656 C 501.863281 374.089844 502.71875 373.734375 503.617188 373.734375 Z M 503.617188 373.734375 " clip-rule="nonzero"/></clipPath><clipPath id="af8f16ebfe"><path d="M 0.242188 0.734375 L 60.003906 0.734375 L 60.003906 346.039062 L 0.242188 346.039062 Z M 0.242188 0.734375 " clip-rule="nonzero"/></clipPath><clipPath id="24b4dba14d"><path d="M 3.617188 0.734375 L 56.628906 0.734375 C 57.523438 0.734375 58.382812 1.089844 59.015625 1.722656 C 59.648438 2.355469 60.003906 3.210938 60.003906 4.109375 L 60.003906 342.660156 C 60.003906 343.554688 59.648438 344.414062 59.015625 345.046875 C 58.382812 345.679688 57.523438 346.035156 56.628906 346.035156 L 3.617188 346.035156 C 2.71875 346.035156 1.863281 345.679688 1.230469 345.046875 C 0.597656 344.414062 0.242188 343.554688 0.242188 342.660156 L 0.242188 4.109375 C 0.242188 3.210938 0.597656 2.355469 1.230469 1.722656 C 1.863281 1.089844 2.71875 0.734375 3.617188 0.734375 Z M 3.617188 0.734375 " clip-rule="nonzero"/></clipPath><clipPath id="f7b50f4551"><rect x="0" width="61" y="0" height="347"/></clipPath><clipPath id="2e9b182852"><path d="M 129.882812 450 L 172 450 L 172 493 L 129.882812 493 Z M 129.882812 450 " clip-rule="nonzero"/></clipPath><clipPath id="36f544f44b"><path d="M 195 480 L 238 480 L 238 522.078125 L 195 522.078125 Z M 195 480 " clip-rule="nonzero"/></clipPath><clipPath id="fc9c48163e"><path d="M 260 414 L 302.53125 414 L 302.53125 457 L 260 457 Z M 260 414 " clip-rule="nonzero"/></clipPath><clipPath id="2b5d8a8420"><path d="M 195 349.425781 L 238 349.425781 L 238 392 L 195 392 Z M 195 349.425781 " clip-rule="nonzero"/></clipPath><clipPath id="d7152147ee"><path d="M 129.882812 373 L 172 373 L 172 415 L 129.882812 415 Z M 129.882812 373 " clip-rule="nonzero"/></clipPath><clipPath id="187b42454c"><rect x="0" width="649" y="0" height="720"/></clipPath></defs><g clip-path="url(#303106be97)"><g clip-path="url(#ab4ee78091)"><g transform="matrix(1, 0, 0, 1, 114, 35)"><g clip-path="url(#d31c6074a0)"><g clip-path="url(#1c29c6e635)"><g clip-path="url(#8ed1d07069)"><path fill="#f7fdfd" d="M 0.703125 0.722656 L 572.238281 0.722656 L 572.238281 733 L 0.703125 733 Z M 0.703125 0.722656 " fill-opacity="1" fill-rule="nonzero"/></g></g></g></g></g></g><g clip-path="url(#69a9082131)"><g clip-path="url(#9299430d05)"><g transform="matrix(1, 0, 0, 1, 384, 272)"><g clip-path="url(#adc0020193)"><g clip-path="url(#8fd8da95b6)"><g clip-path="url(#ff1adb2aa4)"><rect x="-552.96" width="1105.92" fill="#ffffff" height="1105.919991" y="-440.959999" fill-opacity="1"/></g></g></g></g></g></g><g transform="matrix(1, 0, 0, 1, 43, -0.000000000000057351)"><g clip-path="url(#187b42454c)"><g clip-path="url(#d0ca5efc45)"><g clip-path="url(#4434150951)"><g transform="matrix(1, 0, 0, 1, 487, 33)"><g clip-path="url(#4dabe63bf7)"><g clip-path="url(#7883bec26b)"><g clip-path="url(#009fa1df2a)"><path fill="#dceff4" d="M 0.457031 -4.421875 L 161.199219 -4.421875 L 161.199219 156.320312 L 0.457031 156.320312 Z M 0.457031 -4.421875 " fill-opacity="1" fill-rule="nonzero"/></g></g></g></g></g></g><g clip-path="url(#e79ab88ca3)"><g clip-path="url(#676a49cf6b)"><g transform="matrix(1, 0, 0, 1, 190, 226)"><g clip-path="url(#3b5ce6ca7b)"><g clip-path="url(#7aeb0717d0)"><g clip-path="url(#3e618ce51b)"><path fill="#94a3b8" d="M 0.773438 0.234375 L 226.960938 0.234375 L 226.960938 35.953125 L 0.773438 35.953125 Z M 0.773438 0.234375 " fill-opacity="1" fill-rule="nonzero"/></g></g></g></g></g></g><g clip-path="url(#a0175c2e74)"><g clip-path="url(#ffb2d62b2d)"><g transform="matrix(1, 0, 0, 1, 0, -0.000000000000057351)"><g clip-path="url(#a3b5799f8d)"><g clip-path="url(#efa175d345)"><g clip-path="url(#d41706a133)"><path fill="#0891b2" d="M 0.261719 0 L 339.472656 0 L 339.472656 196.464844 L 0.261719 196.464844 Z M 0.261719 0 " fill-opacity="1" fill-rule="nonzero"/></g></g></g></g></g></g><g fill="#ffffff" fill-opacity="1"><g transform="translate(68.634106, 142.883736)"><g><path d="M 7.375 0 L 7.375 -98.15625 L 43.28125 -98.15625 L 55.859375 -59.875 C 56.554688 -57.550781 57.367188 -54.519531 58.296875 -50.78125 C 59.222656 -47.050781 60.144531 -43.054688 61.0625 -38.796875 C 61.988281 -34.535156 62.859375 -30.441406 63.671875 -26.515625 C 64.484375 -22.585938 65.128906 -19.238281 65.609375 -16.46875 L 60.796875 -16.46875 C 61.328125 -19.238281 61.972656 -22.585938 62.734375 -26.515625 C 63.503906 -30.441406 64.363281 -34.523438 65.3125 -38.765625 C 66.257812 -43.003906 67.179688 -46.988281 68.078125 -50.71875 C 68.972656 -54.457031 69.773438 -57.507812 70.484375 -59.875 L 82.875 -98.15625 L 118.90625 -98.15625 L 118.90625 0 L 95.515625 0 L 95.515625 -42.359375 C 95.515625 -44.554688 95.554688 -47.351562 95.640625 -50.75 C 95.734375 -54.15625 95.832031 -57.851562 95.9375 -61.84375 C 96.050781 -65.84375 96.160156 -69.875 96.265625 -73.9375 C 96.378906 -78 96.4375 -81.785156 96.4375 -85.296875 L 98.15625 -85.296875 C 97.3125 -81.484375 96.375 -77.507812 95.34375 -73.375 C 94.3125 -69.25 93.269531 -65.234375 92.21875 -61.328125 C 91.164062 -57.421875 90.164062 -53.816406 89.21875 -50.515625 C 88.28125 -47.222656 87.476562 -44.503906 86.8125 -42.359375 L 72.859375 0 L 53.484375 0 L 39.265625 -42.359375 C 38.597656 -44.503906 37.78125 -47.210938 36.8125 -50.484375 C 35.851562 -53.765625 34.847656 -57.359375 33.796875 -61.265625 C 32.742188 -65.171875 31.6875 -69.1875 30.625 -73.3125 C 29.570312 -77.4375 28.585938 -81.429688 27.671875 -85.296875 L 29.703125 -85.296875 C 29.703125 -81.878906 29.753906 -78.140625 29.859375 -74.078125 C 29.972656 -70.015625 30.082031 -65.972656 30.1875 -61.953125 C 30.300781 -57.929688 30.398438 -54.207031 30.484375 -50.78125 C 30.578125 -47.363281 30.625 -44.554688 30.625 -42.359375 L 30.625 0 Z M 7.375 0 "/></g></g></g><g fill="#ffffff" fill-opacity="1"><g transform="translate(194.824146, 142.883736)"><g><path d="M 7.375 0 L 7.375 -98.15625 L 30.703125 -98.15625 L 30.703125 -19.234375 L 72.265625 -19.234375 L 72.265625 0 Z M 7.375 0 "/></g></g></g><g clip-path="url(#b7580caf13)"><g clip-path="url(#bd4bf2dfae)"><g transform="matrix(1, 0, 0, 1, 190, 297)"><g clip-path="url(#abb1e41b05)"><g clip-path="url(#bbb74a3df5)"><g clip-path="url(#a795b3c769)"><path fill="#cbd5e1" d="M 0.773438 0.675781 L 322.261719 0.675781 L 322.261719 36.394531 L 0.773438 36.394531 Z M 0.773438 0.675781 " fill-opacity="1" fill-rule="nonzero"/></g></g></g></g></g></g><g clip-path="url(#327a636ec7)"><g clip-path="url(#350b6d8f34)"><g transform="matrix(1, 0, 0, 1, 154, 639)"><g clip-path="url(#a10b02c1af)"><g clip-path="url(#dd590d5206)"><g clip-path="url(#5c0bb30c3e)"><path fill="#16a34a" d="M 0.9375 0.351562 L 60.703125 0.351562 L 60.703125 79.957031 L 0.9375 79.957031 Z M 0.9375 0.351562 " fill-opacity="1" fill-rule="nonzero"/></g></g></g></g></g></g><g clip-path="url(#bbf23c5ac2)"><g clip-path="url(#3d0f30d4da)"><g transform="matrix(1, 0, 0, 1, 241, 572)"><g clip-path="url(#e2111ecaac)"><g clip-path="url(#b6859c7d3d)"><g clip-path="url(#bd5cba0fac)"><path fill="#65a30d" d="M 0.265625 0.945312 L 60.027344 0.945312 L 60.027344 147.085938 L 0.265625 147.085938 Z M 0.265625 0.945312 " fill-opacity="1" fill-rule="nonzero"/></g></g></g></g></g></g><g clip-path="url(#a757dea543)"><g clip-path="url(#6a99db8431)"><g transform="matrix(1, 0, 0, 1, 327, 506)"><g clip-path="url(#20bb5aa63a)"><g clip-path="url(#d2c0382917)"><g clip-path="url(#c0e572872e)"><path fill="#d97706" d="M 0.589844 0.542969 L 60.351562 0.542969 L 60.351562 212.984375 L 0.589844 212.984375 Z M 0.589844 0.542969 " fill-opacity="1" fill-rule="nonzero"/></g></g></g></g></g></g><g clip-path="url(#4db789e6e2)"><g clip-path="url(#20db5407cf)"><g transform="matrix(1, 0, 0, 1, 413, 440)"><g clip-path="url(#66c93034af)"><g clip-path="url(#5acfac1f23)"><g clip-path="url(#8babd657bf)"><path fill="#ea580c" d="M 0.914062 0.136719 L 60.679688 0.136719 L 60.679688 279.113281 L 0.914062 279.113281 Z M 0.914062 0.136719 " fill-opacity="1" fill-rule="nonzero"/></g></g></g></g></g></g><g clip-path="url(#9c04222af7)"><g clip-path="url(#30c8f76d86)"><g transform="matrix(1, 0, 0, 1, 500, 373)"><g clip-path="url(#f7b50f4551)"><g clip-path="url(#af8f16ebfe)"><g clip-path="url(#24b4dba14d)"><path fill="#b40000" d="M 0.242188 0.734375 L 60.003906 0.734375 L 60.003906 346.007812 L 0.242188 346.007812 Z M 0.242188 0.734375 " fill-opacity="1" fill-rule="nonzero"/></g></g></g></g></g></g><path fill="#68607c" d="M 161.609375 386.96875 L 203.28125 371.785156 L 205.320312 377.378906 L 163.644531 392.5625 Z M 161.609375 386.96875 " fill-opacity="1" fill-rule="nonzero"/><path fill="#68607c" d="M 223.03125 381.296875 L 227.242188 377.089844 L 274.871094 424.714844 L 270.660156 428.925781 Z M 223.03125 381.296875 " fill-opacity="1" fill-rule="nonzero"/><path fill="#68607c" d="M 230.683594 431.773438 L 231.492188 425.878906 L 267.214844 430.789062 L 266.402344 436.6875 Z M 230.683594 431.773438 " fill-opacity="1" fill-rule="nonzero"/><path fill="#68607c" d="M 158.320312 401.210938 L 160.980469 395.886719 L 208.609375 419.703125 L 205.949219 425.027344 Z M 158.320312 401.210938 " fill-opacity="1" fill-rule="nonzero"/><path fill="#68607c" d="M 160.285156 479.589844 L 162.953125 474.261719 L 205.589844 495.605469 L 202.925781 500.929688 Z M 160.285156 479.589844 " fill-opacity="1" fill-rule="nonzero"/><path fill="#68607c" d="M 213.230469 438.730469 L 219.183594 438.730469 L 219.183594 489.332031 L 213.230469 489.332031 Z M 213.230469 438.730469 " fill-opacity="1" fill-rule="nonzero"/><path fill="#68607c" d="M 155.882812 457.933594 L 206.050781 380.574219 L 211.042969 383.816406 L 160.878906 461.175781 Z M 155.882812 457.933594 " fill-opacity="1" fill-rule="nonzero"/><path fill="#68607c" d="M 224.027344 491.730469 L 271.011719 442.621094 L 275.3125 446.738281 L 228.328125 495.847656 Z M 224.027344 491.730469 " fill-opacity="1" fill-rule="nonzero"/><path fill="#68607c" d="M 155.738281 408.308594 L 160.855469 405.269531 L 209.902344 487.816406 L 204.785156 490.859375 Z M 155.738281 408.308594 " fill-opacity="1" fill-rule="nonzero"/><g clip-path="url(#2e9b182852)"><path fill="#4e9bb9" d="M 171.554688 471.472656 C 171.554688 474.835938 170.78125 477.992188 169.351562 480.789062 C 165.960938 487.636719 158.875 492.308594 150.71875 492.308594 C 139.199219 492.308594 129.882812 482.992188 129.882812 471.472656 C 129.882812 459.953125 139.199219 450.636719 150.71875 450.636719 C 154.917969 450.636719 158.785156 451.855469 162.03125 453.96875 C 167.777344 457.691406 171.554688 464.121094 171.554688 471.472656 Z M 171.554688 471.472656 " fill-opacity="1" fill-rule="nonzero"/></g><g clip-path="url(#36f544f44b)"><path fill="#91cbd7" d="M 232.015625 487.695312 C 235.167969 491.328125 237.042969 496.0625 237.042969 501.242188 C 237.042969 512.761719 227.726562 522.078125 216.207031 522.078125 C 204.6875 522.078125 195.371094 512.761719 195.371094 501.242188 C 195.371094 498.828125 195.785156 496.539062 196.53125 494.394531 C 197.960938 490.195312 200.699219 486.65625 204.269531 484.152344 C 207.632812 481.773438 211.742188 480.402344 216.207031 480.402344 C 222.546875 480.402344 228.234375 483.230469 232.015625 487.695312 Z M 232.015625 487.695312 " fill-opacity="1" fill-rule="nonzero"/></g><g clip-path="url(#fc9c48163e)"><path fill="#ffd086" d="M 281.695312 414.914062 C 293.214844 414.914062 302.53125 424.230469 302.53125 435.753906 C 302.53125 447.273438 293.214844 456.589844 281.695312 456.589844 C 276.097656 456.589844 271.039062 454.417969 267.316406 450.785156 C 263.328125 447.035156 260.859375 441.675781 260.859375 435.753906 C 260.859375 434.800781 260.917969 433.875 261.066406 432.953125 C 261.664062 428.308594 263.804688 424.171875 266.960938 421.015625 C 270.742188 417.238281 275.921875 414.914062 281.695312 414.914062 Z M 281.695312 414.914062 " fill-opacity="1" fill-rule="nonzero"/></g><path fill="#ed6571" d="M 236.835938 429.621094 C 235.496094 439.800781 226.773438 447.660156 216.207031 447.660156 C 204.6875 447.660156 195.371094 438.34375 195.371094 426.820312 C 195.371094 423.457031 196.144531 420.304688 197.574219 417.503906 C 200.964844 410.65625 208.050781 405.984375 216.207031 405.984375 C 227.726562 405.984375 237.042969 415.300781 237.042969 426.820312 C 237.042969 427.773438 236.984375 428.695312 236.835938 429.621094 Z M 236.835938 429.621094 " fill-opacity="1" fill-rule="nonzero"/><g clip-path="url(#2b5d8a8420)"><path fill="#f69489" d="M 216.207031 349.425781 C 227.726562 349.425781 237.042969 358.742188 237.042969 370.265625 C 237.042969 376.039062 234.722656 381.21875 230.941406 385 C 227.160156 388.777344 221.980469 391.101562 216.207031 391.101562 C 212.011719 391.101562 208.140625 389.878906 204.894531 387.765625 C 201.113281 385.324219 198.167969 381.695312 196.621094 377.378906 C 195.816406 375.175781 195.371094 372.765625 195.371094 370.265625 C 195.371094 358.742188 204.6875 349.425781 216.207031 349.425781 Z M 216.207031 349.425781 " fill-opacity="1" fill-rule="nonzero"/></g><g clip-path="url(#d7152147ee)"><path fill="#91cbd7" d="M 170.304688 386.964844 C 171.109375 389.167969 171.554688 391.578125 171.554688 394.078125 C 171.554688 397.441406 170.78125 400.597656 169.351562 403.394531 C 167.566406 406.96875 164.800781 409.945312 161.375 411.96875 C 158.28125 413.84375 154.617188 414.914062 150.71875 414.914062 C 139.199219 414.914062 129.882812 405.597656 129.882812 394.078125 C 129.882812 382.558594 139.199219 373.242188 150.71875 373.242188 C 159.738281 373.242188 167.390625 378.957031 170.304688 386.964844 Z M 170.304688 386.964844 " fill-opacity="1" fill-rule="nonzero"/></g></g></g></svg>