<svg xmlns="http://www.w3.org/2000/svg" xmlns:xlink="http://www.w3.org/1999/xlink" width="1024" zoomAndPan="magnify" viewBox="0 0 768 767.999994" height="1024" preserveAspectRatio="xMidYMid meet" version="1.0"><defs><g/><clipPath id="abac817620"><path d="M 113.628906 35.722656 L 543.242188 35.722656 L 543.242188 768 L 113.628906 768 Z M 113.628906 35.722656 " clip-rule="nonzero"/></clipPath><clipPath id="d8bb8ea0f3"><path d="M 168.378906 35.722656 L 488.492188 35.722656 C 503.011719 35.722656 516.9375 41.488281 527.203125 51.757812 C 537.472656 62.023438 543.242188 75.949219 543.242188 90.472656 L 543.242188 713.25 C 543.242188 727.769531 537.472656 741.695312 527.203125 751.964844 C 516.9375 762.230469 503.011719 768 488.492188 768 L 168.378906 768 C 153.855469 768 139.929688 762.230469 129.664062 751.964844 C 119.394531 741.695312 113.628906 727.769531 113.628906 713.25 L 113.628906 90.472656 C 113.628906 75.949219 119.394531 62.023438 129.664062 51.757812 C 139.929688 41.488281 153.855469 35.722656 168.378906 35.722656 Z M 168.378906 35.722656 " clip-rule="nonzero"/></clipPath><clipPath id="30e3bf13bb"><path d="M 0.628906 0.722656 L 430.242188 0.722656 L 430.242188 733 L 0.628906 733 Z M 0.628906 0.722656 " clip-rule="nonzero"/></clipPath><clipPath id="dd27d0561d"><path d="M 55.378906 0.722656 L 375.492188 0.722656 C 390.011719 0.722656 403.9375 6.488281 414.203125 16.757812 C 424.472656 27.023438 430.242188 40.949219 430.242188 55.472656 L 430.242188 678.25 C 430.242188 692.769531 424.472656 706.695312 414.203125 716.964844 C 403.9375 727.230469 390.011719 733 375.492188 733 L 55.378906 733 C 40.855469 733 26.929688 727.230469 16.664062 716.964844 C 6.394531 706.695312 0.628906 692.769531 0.628906 678.25 L 0.628906 55.472656 C 0.628906 40.949219 6.394531 27.023438 16.664062 16.757812 C 26.929688 6.488281 40.855469 0.722656 55.378906 0.722656 Z M 55.378906 0.722656 " clip-rule="nonzero"/></clipPath><clipPath id="662cafd288"><rect x="0" width="431" y="0" height="733"/></clipPath><clipPath id="8ca238c716"><path d="M 448.511719 35.722656 L 534.046875 35.722656 L 534.046875 85.984375 L 448.511719 85.984375 Z M 448.511719 35.722656 " clip-rule="nonzero"/></clipPath><clipPath id="568cfd12a5"><path d="M 0.511719 0.722656 L 86.046875 0.722656 L 86.046875 50.984375 L 0.511719 50.984375 Z M 0.511719 0.722656 " clip-rule="nonzero"/></clipPath><clipPath id="63d62bf60e"><rect x="0" width="87" y="0" height="51"/></clipPath><clipPath id="bea3962b39"><path d="M 420.214844 184.746094 L 685.765625 184.746094 L 685.765625 768 L 420.214844 768 Z M 420.214844 184.746094 " clip-rule="nonzero"/></clipPath><clipPath id="f1da24a8c1"><path d="M 473.464844 184.746094 L 632.515625 184.746094 C 661.925781 184.746094 685.765625 208.585938 685.765625 237.996094 L 685.765625 714.75 C 685.765625 744.160156 661.925781 768 632.515625 768 L 473.464844 768 C 444.058594 768 420.214844 744.160156 420.214844 714.75 L 420.214844 237.996094 C 420.214844 208.585938 444.058594 184.746094 473.464844 184.746094 Z M 473.464844 184.746094 " clip-rule="nonzero"/></clipPath><clipPath id="2ab1410169"><path d="M 0.214844 0.746094 L 265.765625 0.746094 L 265.765625 584 L 0.214844 584 Z M 0.214844 0.746094 " clip-rule="nonzero"/></clipPath><clipPath id="55b2e7b549"><path d="M 53.464844 0.746094 L 212.515625 0.746094 C 241.925781 0.746094 265.765625 24.585938 265.765625 53.996094 L 265.765625 530.75 C 265.765625 560.160156 241.925781 584 212.515625 584 L 53.464844 584 C 24.058594 584 0.214844 560.160156 0.214844 530.75 L 0.214844 53.996094 C 0.214844 24.585938 24.058594 0.746094 53.464844 0.746094 Z M 53.464844 0.746094 " clip-rule="nonzero"/></clipPath><clipPath id="d9233e11c4"><rect x="0" width="266" y="0" height="584"/></clipPath><clipPath id="1d8b543aa5"><path d="M 600.234375 186.871094 L 685.765625 186.871094 L 685.765625 241.980469 L 600.234375 241.980469 Z M 600.234375 186.871094 " clip-rule="nonzero"/></clipPath><clipPath id="165a58949b"><path d="M 0.234375 0.871094 L 85.765625 0.871094 L 85.765625 55.980469 L 0.234375 55.980469 Z M 0.234375 0.871094 " clip-rule="nonzero"/></clipPath><clipPath id="326f189630"><rect x="0" width="86" y="0" height="56"/></clipPath><clipPath id="0712d4fd1e"><path d="M 384 272 L 412 272 L 412 300 L 384 300 Z M 384 272 " clip-rule="nonzero"/></clipPath><clipPath id="beee848315"><path d="M 398 272 C 390.269531 272 384 278.269531 384 286 C 384 293.730469 390.269531 300 398 300 C 405.730469 300 412 293.730469 412 286 C 412 278.269531 405.730469 272 398 272 Z M 398 272 " clip-rule="nonzero"/></clipPath><clipPath id="4c9e10f172"><path d="M 0 0 L 28 0 L 28 28 L 0 28 Z M 0 0 " clip-rule="nonzero"/></clipPath><clipPath id="718aed7bd9"><path d="M 14 0 C 6.269531 0 0 6.269531 0 14 C 0 21.730469 6.269531 28 14 28 C 21.730469 28 28 21.730469 28 14 C 28 6.269531 21.730469 0 14 0 Z M 14 0 " clip-rule="nonzero"/></clipPath><clipPath id="b3246de010"><rect x="0" width="28" y="0" height="28"/></clipPath><clipPath id="14214f9e36"><path d="M 529.769531 34.703125 L 686.785156 34.703125 L 686.785156 191.71875 L 529.769531 191.71875 Z M 529.769531 34.703125 " clip-rule="nonzero"/></clipPath><clipPath id="7c95b59c19"><path d="M 683.199219 191.71875 L 537.769531 191.71875 C 533.351562 191.71875 529.769531 188.136719 529.769531 183.71875 L 529.769531 38.289062 C 529.769531 36.949219 530.578125 35.738281 531.816406 35.226562 C 533.054688 34.714844 534.480469 34.996094 535.429688 35.945312 L 685.542969 186.0625 C 686.492188 187.007812 686.773438 188.433594 686.261719 189.671875 C 685.75 190.910156 684.539062 191.71875 683.199219 191.71875 Z M 683.199219 191.71875 " clip-rule="nonzero"/></clipPath><clipPath id="7d6760586a"><path d="M 0.769531 0.703125 L 157.785156 0.703125 L 157.785156 157.71875 L 0.769531 157.71875 Z M 0.769531 0.703125 " clip-rule="nonzero"/></clipPath><clipPath id="207ecba22f"><path d="M 154.199219 157.71875 L 8.769531 157.71875 C 4.351562 157.71875 0.769531 154.136719 0.769531 149.71875 L 0.769531 4.289062 C 0.769531 2.949219 1.578125 1.738281 2.816406 1.226562 C 4.054688 0.714844 5.480469 0.996094 6.429688 1.945312 L 156.542969 152.0625 C 157.492188 153.007812 157.773438 154.433594 157.261719 155.671875 C 156.75 156.910156 155.539062 157.71875 154.199219 157.71875 Z M 154.199219 157.71875 " clip-rule="nonzero"/></clipPath><clipPath id="830bbb67c2"><rect x="0" width="158" y="0" height="158"/></clipPath><clipPath id="5c2fa018ce"><path d="M 233.773438 226.234375 L 460.097656 226.234375 L 460.097656 261.953125 L 233.773438 261.953125 Z M 233.773438 226.234375 " clip-rule="nonzero"/></clipPath><clipPath id="7467f852d7"><path d="M 245.773438 226.234375 L 448.007812 226.234375 C 451.1875 226.234375 454.242188 227.496094 456.492188 229.746094 C 458.742188 231.996094 460.007812 235.050781 460.007812 238.234375 L 460.007812 249.953125 C 460.007812 253.136719 458.742188 256.1875 456.492188 258.4375 C 454.242188 260.6875 451.1875 261.953125 448.007812 261.953125 L 245.773438 261.953125 C 242.589844 261.953125 239.539062 260.6875 237.289062 258.4375 C 235.039062 256.1875 233.773438 253.136719 233.773438 249.953125 L 233.773438 238.234375 C 233.773438 235.050781 235.039062 231.996094 237.289062 229.746094 C 239.539062 227.496094 242.589844 226.234375 245.773438 226.234375 Z M 245.773438 226.234375 " clip-rule="nonzero"/></clipPath><clipPath id="a97252993a"><path d="M 0.773438 0.234375 L 227 0.234375 L 227 35.953125 L 0.773438 35.953125 Z M 0.773438 0.234375 " clip-rule="nonzero"/></clipPath><clipPath id="4d14f50cde"><path d="M 12.773438 0.234375 L 215.007812 0.234375 C 218.1875 0.234375 221.242188 1.496094 223.492188 3.746094 C 225.742188 5.996094 227.007812 9.050781 227.007812 12.234375 L 227.007812 23.953125 C 227.007812 27.136719 225.742188 30.1875 223.492188 32.4375 C 221.242188 34.6875 218.1875 35.953125 215.007812 35.953125 L 12.773438 35.953125 C 9.589844 35.953125 6.539062 34.6875 4.289062 32.4375 C 2.039062 30.1875 0.773438 27.136719 0.773438 23.953125 L 0.773438 12.234375 C 0.773438 9.050781 2.039062 5.996094 4.289062 3.746094 C 6.539062 1.496094 9.589844 0.234375 12.773438 0.234375 Z M 12.773438 0.234375 " clip-rule="nonzero"/></clipPath><clipPath id="ab24d60cfd"><rect x="0" width="228" y="0" height="36"/></clipPath><clipPath id="2f23a8d8a0"><path d="M 43.261719 0 L 383 0 L 383 196.464844 L 43.261719 196.464844 Z M 43.261719 0 " clip-rule="nonzero"/></clipPath><clipPath id="3a0643e7a3"><path d="M 118.261719 0 L 307.609375 0 C 327.503906 0 346.578125 7.902344 360.644531 21.96875 C 374.710938 36.03125 382.609375 55.109375 382.609375 75 L 382.609375 121.464844 C 382.609375 141.355469 374.710938 160.433594 360.644531 174.5 C 346.578125 188.5625 327.503906 196.464844 307.609375 196.464844 L 118.261719 196.464844 C 98.371094 196.464844 79.292969 188.5625 65.230469 174.5 C 51.164062 160.433594 43.261719 141.355469 43.261719 121.464844 L 43.261719 75 C 43.261719 55.109375 51.164062 36.03125 65.230469 21.96875 C 79.292969 7.902344 98.371094 0 118.261719 0 Z M 118.261719 0 " clip-rule="nonzero"/></clipPath><clipPath id="7df68bc09b"><path d="M 0.261719 0 L 339.800781 0 L 339.800781 196.464844 L 0.261719 196.464844 Z M 0.261719 0 " clip-rule="nonzero"/></clipPath><clipPath id="b6096a31ee"><path d="M 75.261719 0 L 264.609375 0 C 284.503906 0 303.578125 7.902344 317.644531 21.96875 C 331.710938 36.03125 339.609375 55.109375 339.609375 75 L 339.609375 121.464844 C 339.609375 141.355469 331.710938 160.433594 317.644531 174.5 C 303.578125 188.5625 284.503906 196.464844 264.609375 196.464844 L 75.261719 196.464844 C 55.371094 196.464844 36.292969 188.5625 22.230469 174.5 C 8.164062 160.433594 0.261719 141.355469 0.261719 121.464844 L 0.261719 75 C 0.261719 55.109375 8.164062 36.03125 22.230469 21.96875 C 36.292969 7.902344 55.371094 0 75.261719 0 Z M 75.261719 0 " clip-rule="nonzero"/></clipPath><clipPath id="fc51afe24b"><rect x="0" width="340" y="0" height="197"/></clipPath><clipPath id="cef08ab45d"><path d="M 233.773438 297.675781 L 555.261719 297.675781 L 555.261719 333.394531 L 233.773438 333.394531 Z M 233.773438 297.675781 " clip-rule="nonzero"/></clipPath><clipPath id="2337394099"><path d="M 245.773438 297.675781 L 543.261719 297.675781 C 546.445312 297.675781 549.496094 298.9375 551.746094 301.1875 C 553.996094 303.441406 555.261719 306.492188 555.261719 309.675781 L 555.261719 321.394531 C 555.261719 324.578125 553.996094 327.628906 551.746094 329.878906 C 549.496094 332.132812 546.445312 333.394531 543.261719 333.394531 L 245.773438 333.394531 C 242.589844 333.394531 239.539062 332.132812 237.289062 329.878906 C 235.039062 327.628906 233.773438 324.578125 233.773438 321.394531 L 233.773438 309.675781 C 233.773438 306.492188 235.039062 303.441406 237.289062 301.1875 C 239.539062 298.9375 242.589844 297.675781 245.773438 297.675781 Z M 245.773438 297.675781 " clip-rule="nonzero"/></clipPath><clipPath id="f239aff710"><path d="M 0.773438 0.675781 L 322.261719 0.675781 L 322.261719 36.394531 L 0.773438 36.394531 Z M 0.773438 0.675781 " clip-rule="nonzero"/></clipPath><clipPath id="51b7178f7a"><path d="M 12.773438 0.675781 L 310.261719 0.675781 C 313.445312 0.675781 316.496094 1.9375 318.746094 4.1875 C 320.996094 6.441406 322.261719 9.492188 322.261719 12.675781 L 322.261719 24.394531 C 322.261719 27.578125 320.996094 30.628906 318.746094 32.878906 C 316.496094 35.132812 313.445312 36.394531 310.261719 36.394531 L 12.773438 36.394531 C 9.589844 36.394531 6.539062 35.132812 4.289062 32.878906 C 2.039062 30.628906 0.773438 27.578125 0.773438 24.394531 L 0.773438 12.675781 C 0.773438 9.492188 2.039062 6.441406 4.289062 4.1875 C 6.539062 1.9375 9.589844 0.675781 12.773438 0.675781 Z M 12.773438 0.675781 " clip-rule="nonzero"/></clipPath><clipPath id="fc0f5d15c2"><rect x="0" width="323" y="0" height="37"/></clipPath><clipPath id="8288eb4eae"><path d="M 197.9375 639.351562 L 257.703125 639.351562 L 257.703125 719.191406 L 197.9375 719.191406 Z M 197.9375 639.351562 " clip-rule="nonzero"/></clipPath><clipPath id="abe076939d"><path d="M 201.3125 639.351562 L 254.328125 639.351562 C 255.222656 639.351562 256.082031 639.707031 256.714844 640.339844 C 257.347656 640.972656 257.703125 641.828125 257.703125 642.726562 L 257.703125 715.660156 C 257.703125 716.554688 257.347656 717.414062 256.714844 718.046875 C 256.082031 718.679688 255.222656 719.035156 254.328125 719.035156 L 201.3125 719.035156 C 200.417969 719.035156 199.558594 718.679688 198.925781 718.046875 C 198.292969 717.414062 197.9375 716.554688 197.9375 715.660156 L 197.9375 642.726562 C 197.9375 641.828125 198.292969 640.972656 198.925781 640.339844 C 199.558594 639.707031 200.417969 639.351562 201.3125 639.351562 Z M 201.3125 639.351562 " clip-rule="nonzero"/></clipPath><clipPath id="747b16bafa"><path d="M 0.9375 0.351562 L 60.703125 0.351562 L 60.703125 80 L 0.9375 80 Z M 0.9375 0.351562 " clip-rule="nonzero"/></clipPath><clipPath id="f8df56e275"><path d="M 4.3125 0.351562 L 57.328125 0.351562 C 58.222656 0.351562 59.082031 0.707031 59.714844 1.339844 C 60.347656 1.972656 60.703125 2.828125 60.703125 3.726562 L 60.703125 76.660156 C 60.703125 77.554688 60.347656 78.414062 59.714844 79.046875 C 59.082031 79.679688 58.222656 80.035156 57.328125 80.035156 L 4.3125 80.035156 C 3.417969 80.035156 2.558594 79.679688 1.925781 79.046875 C 1.292969 78.414062 0.9375 77.554688 0.9375 76.660156 L 0.9375 3.726562 C 0.9375 2.828125 1.292969 1.972656 1.925781 1.339844 C 2.558594 0.707031 3.417969 0.351562 4.3125 0.351562 Z M 4.3125 0.351562 " clip-rule="nonzero"/></clipPath><clipPath id="7219ded76c"><rect x="0" width="61" y="0" height="81"/></clipPath><clipPath id="f67da877be"><path d="M 284.265625 572.945312 L 344.027344 572.945312 L 344.027344 719.085938 L 284.265625 719.085938 Z M 284.265625 572.945312 " clip-rule="nonzero"/></clipPath><clipPath id="986d08a55d"><path d="M 287.640625 572.945312 L 340.652344 572.945312 C 341.546875 572.945312 342.40625 573.300781 343.039062 573.933594 C 343.671875 574.566406 344.027344 575.425781 344.027344 576.320312 L 344.027344 715.660156 C 344.027344 716.554688 343.671875 717.414062 343.039062 718.046875 C 342.40625 718.679688 341.546875 719.035156 340.652344 719.035156 L 287.640625 719.035156 C 286.742188 719.035156 285.886719 718.679688 285.253906 718.046875 C 284.621094 717.414062 284.265625 716.554688 284.265625 715.660156 L 284.265625 576.320312 C 284.265625 575.425781 284.621094 574.566406 285.253906 573.933594 C 285.886719 573.300781 286.742188 572.945312 287.640625 572.945312 Z M 287.640625 572.945312 " clip-rule="nonzero"/></clipPath><clipPath id="e80ccea73a"><path d="M 0.265625 0.945312 L 60.027344 0.945312 L 60.027344 147.039062 L 0.265625 147.039062 Z M 0.265625 0.945312 " clip-rule="nonzero"/></clipPath><clipPath id="9a05bf6d4d"><path d="M 3.640625 0.945312 L 56.652344 0.945312 C 57.546875 0.945312 58.40625 1.300781 59.039062 1.933594 C 59.671875 2.566406 60.027344 3.425781 60.027344 4.320312 L 60.027344 143.660156 C 60.027344 144.554688 59.671875 145.414062 59.039062 146.046875 C 58.40625 146.679688 57.546875 147.035156 56.652344 147.035156 L 3.640625 147.035156 C 2.742188 147.035156 1.886719 146.679688 1.253906 146.046875 C 0.621094 145.414062 0.265625 144.554688 0.265625 143.660156 L 0.265625 4.320312 C 0.265625 3.425781 0.621094 2.566406 1.253906 1.933594 C 1.886719 1.300781 2.742188 0.945312 3.640625 0.945312 Z M 3.640625 0.945312 " clip-rule="nonzero"/></clipPath><clipPath id="9e6760d78f"><rect x="0" width="61" y="0" height="148"/></clipPath><clipPath id="48befd26b6"><path d="M 370.589844 506.542969 L 430.351562 506.542969 L 430.351562 719.214844 L 370.589844 719.214844 Z M 370.589844 506.542969 " clip-rule="nonzero"/></clipPath><clipPath id="075a8f4165"><path d="M 373.964844 506.542969 L 426.976562 506.542969 C 427.875 506.542969 428.730469 506.898438 429.363281 507.53125 C 429.996094 508.164062 430.351562 509.019531 430.351562 509.917969 L 430.351562 715.660156 C 430.351562 716.554688 429.996094 717.414062 429.363281 718.046875 C 428.730469 718.679688 427.875 719.035156 426.976562 719.035156 L 373.964844 719.035156 C 373.070312 719.035156 372.210938 718.679688 371.578125 718.046875 C 370.945312 717.414062 370.589844 716.554688 370.589844 715.660156 L 370.589844 509.917969 C 370.589844 509.019531 370.945312 508.164062 371.578125 507.53125 C 372.210938 506.898438 373.070312 506.542969 373.964844 506.542969 Z M 373.964844 506.542969 " clip-rule="nonzero"/></clipPath><clipPath id="a07a614cae"><path d="M 0.589844 0.542969 L 60.351562 0.542969 L 60.351562 213 L 0.589844 213 Z M 0.589844 0.542969 " clip-rule="nonzero"/></clipPath><clipPath id="de2a82fe03"><path d="M 3.964844 0.542969 L 56.976562 0.542969 C 57.875 0.542969 58.730469 0.898438 59.363281 1.53125 C 59.996094 2.164062 60.351562 3.019531 60.351562 3.917969 L 60.351562 209.660156 C 60.351562 210.554688 59.996094 211.414062 59.363281 212.046875 C 58.730469 212.679688 57.875 213.035156 56.976562 213.035156 L 3.964844 213.035156 C 3.070312 213.035156 2.210938 212.679688 1.578125 212.046875 C 0.945312 211.414062 0.589844 210.554688 0.589844 209.660156 L 0.589844 3.917969 C 0.589844 3.019531 0.945312 2.164062 1.578125 1.53125 C 2.210938 0.898438 3.070312 0.542969 3.964844 0.542969 Z M 3.964844 0.542969 " clip-rule="nonzero"/></clipPath><clipPath id="b5d071a18a"><rect x="0" width="61" y="0" height="214"/></clipPath><clipPath id="e37ee5a677"><path d="M 456.914062 440.136719 L 516.679688 440.136719 L 516.679688 719.113281 L 456.914062 719.113281 Z M 456.914062 440.136719 " clip-rule="nonzero"/></clipPath><clipPath id="057df0290b"><path d="M 460.289062 440.136719 L 513.304688 440.136719 C 514.199219 440.136719 515.058594 440.492188 515.691406 441.125 C 516.324219 441.757812 516.679688 442.617188 516.679688 443.511719 L 516.679688 715.660156 C 516.679688 716.554688 516.324219 717.414062 515.691406 718.046875 C 515.058594 718.679688 514.199219 719.035156 513.304688 719.035156 L 460.289062 719.035156 C 459.394531 719.035156 458.535156 718.679688 457.902344 718.046875 C 457.269531 717.414062 456.914062 716.554688 456.914062 715.660156 L 456.914062 443.511719 C 456.914062 442.617188 457.269531 441.757812 457.902344 441.125 C 458.535156 440.492188 459.394531 440.136719 460.289062 440.136719 Z M 460.289062 440.136719 " clip-rule="nonzero"/></clipPath><clipPath id="2cf016e787"><path d="M 0.914062 0.136719 L 60.679688 0.136719 L 60.679688 279.039062 L 0.914062 279.039062 Z M 0.914062 0.136719 " clip-rule="nonzero"/></clipPath><clipPath id="4acd2993bb"><path d="M 4.289062 0.136719 L 57.304688 0.136719 C 58.199219 0.136719 59.058594 0.492188 59.691406 1.125 C 60.324219 1.757812 60.679688 2.617188 60.679688 3.511719 L 60.679688 275.660156 C 60.679688 276.554688 60.324219 277.414062 59.691406 278.046875 C 59.058594 278.679688 58.199219 279.035156 57.304688 279.035156 L 4.289062 279.035156 C 3.394531 279.035156 2.535156 278.679688 1.902344 278.046875 C 1.269531 277.414062 0.914062 276.554688 0.914062 275.660156 L 0.914062 3.511719 C 0.914062 2.617188 1.269531 1.757812 1.902344 1.125 C 2.535156 0.492188 3.394531 0.136719 4.289062 0.136719 Z M 4.289062 0.136719 " clip-rule="nonzero"/></clipPath><clipPath id="12a7837741"><rect x="0" width="61" y="0" height="280"/></clipPath><clipPath id="f1357db42f"><path d="M 543.242188 373.734375 L 603.003906 373.734375 L 603.003906 719.242188 L 543.242188 719.242188 Z M 543.242188 373.734375 " clip-rule="nonzero"/></clipPath><clipPath id="fe2c112d7e"><path d="M 546.617188 373.734375 L 599.628906 373.734375 C 600.523438 373.734375 601.382812 374.089844 602.015625 374.722656 C 602.648438 375.355469 603.003906 376.210938 603.003906 377.109375 L 603.003906 715.660156 C 603.003906 716.554688 602.648438 717.414062 602.015625 718.046875 C 601.382812 718.679688 600.523438 719.035156 599.628906 719.035156 L 546.617188 719.035156 C 545.71875 719.035156 544.863281 718.679688 544.230469 718.046875 C 543.597656 717.414062 543.242188 716.554688 543.242188 715.660156 L 543.242188 377.109375 C 543.242188 376.210938 543.597656 375.355469 544.230469 374.722656 C 544.863281 374.089844 545.71875 373.734375 546.617188 373.734375 Z M 546.617188 373.734375 " clip-rule="nonzero"/></clipPath><clipPath id="bb2bd7153c"><path d="M 0.242188 0.734375 L 60.003906 0.734375 L 60.003906 346.039062 L 0.242188 346.039062 Z M 0.242188 0.734375 " clip-rule="nonzero"/></clipPath><clipPath id="94b4b2feb6"><path d="M 3.617188 0.734375 L 56.628906 0.734375 C 57.523438 0.734375 58.382812 1.089844 59.015625 1.722656 C 59.648438 2.355469 60.003906 3.210938 60.003906 4.109375 L 60.003906 342.660156 C 60.003906 343.554688 59.648438 344.414062 59.015625 345.046875 C 58.382812 345.679688 57.523438 346.035156 56.628906 346.035156 L 3.617188 346.035156 C 2.71875 346.035156 1.863281 345.679688 1.230469 345.046875 C 0.597656 344.414062 0.242188 343.554688 0.242188 342.660156 L 0.242188 4.109375 C 0.242188 3.210938 0.597656 2.355469 1.230469 1.722656 C 1.863281 1.089844 2.71875 0.734375 3.617188 0.734375 Z M 3.617188 0.734375 " clip-rule="nonzero"/></clipPath><clipPath id="81b8cef5c4"><rect x="0" width="61" y="0" height="347"/></clipPath><clipPath id="5fd286b1f8"><path d="M 172.882812 451 L 215 451 L 215 494 L 172.882812 494 Z M 172.882812 451 " clip-rule="nonzero"/></clipPath><clipPath id="d4902138b5"><path d="M 238 481 L 281 481 L 281 523.425781 L 238 523.425781 Z M 238 481 " clip-rule="nonzero"/></clipPath><clipPath id="5dc10a5ac8"><path d="M 304 415 L 346.882812 415 L 346.882812 458 L 304 458 Z M 304 415 " clip-rule="nonzero"/></clipPath><clipPath id="5aa2091510"><path d="M 238 349.425781 L 281 349.425781 L 281 392 L 238 392 Z M 238 349.425781 " clip-rule="nonzero"/></clipPath><clipPath id="ac39972265"><path d="M 172.882812 373 L 215 373 L 215 416 L 172.882812 416 Z M 172.882812 373 " clip-rule="nonzero"/></clipPath><clipPath id="a0c7216722"><rect x="0" width="216" y="0" height="162"/></clipPath></defs><g clip-path="url(#abac817620)"><g clip-path="url(#d8bb8ea0f3)"><g transform="matrix(1, 0, 0, 1, 113, 35)"><g clip-path="url(#662cafd288)"><g clip-path="url(#30e3bf13bb)"><g clip-path="url(#dd27d0561d)"><path fill="#feffff" d="M 0.628906 0.722656 L 430.242188 0.722656 L 430.242188 732.40625 L 0.628906 732.40625 Z M 0.628906 0.722656 " fill-opacity="1" fill-rule="nonzero"/></g></g></g></g></g></g><g clip-path="url(#8ca238c716)"><g transform="matrix(1, 0, 0, 1, 448, 35)"><g clip-path="url(#63d62bf60e)"><g clip-path="url(#568cfd12a5)"><path fill="#feffff" d="M 0.511719 0.722656 L 86.113281 0.722656 L 86.113281 50.984375 L 0.511719 50.984375 Z M 0.511719 0.722656 " fill-opacity="1" fill-rule="nonzero"/></g></g></g></g><g clip-path="url(#bea3962b39)"><g clip-path="url(#f1da24a8c1)"><g transform="matrix(1, 0, 0, 1, 420, 184)"><g clip-path="url(#d9233e11c4)"><g clip-path="url(#2ab1410169)"><g clip-path="url(#55b2e7b549)"><path fill="#feffff" d="M 0.214844 0.746094 L 265.765625 0.746094 L 265.765625 583.714844 L 0.214844 583.714844 Z M 0.214844 0.746094 " fill-opacity="1" fill-rule="nonzero"/></g></g></g></g></g></g><g clip-path="url(#1d8b543aa5)"><g transform="matrix(1, 0, 0, 1, 600, 186)"><g clip-path="url(#326f189630)"><g clip-path="url(#165a58949b)"><path fill="#feffff" d="M 0.234375 0.871094 L 85.695312 0.871094 L 85.695312 55.980469 L 0.234375 55.980469 Z M 0.234375 0.871094 " fill-opacity="1" fill-rule="nonzero"/></g></g></g></g><g clip-path="url(#0712d4fd1e)"><g clip-path="url(#beee848315)"><g transform="matrix(1, 0, 0, 1, 384, 272)"><g clip-path="url(#b3246de010)"><g clip-path="url(#4c9e10f172)"><g clip-path="url(#718aed7bd9)"><rect x="-552.96" width="1105.92" fill="#ffffff" height="1105.919991" y="-440.959999" fill-opacity="1"/></g></g></g></g></g></g><g clip-path="url(#14214f9e36)"><g clip-path="url(#7c95b59c19)"><g transform="matrix(1, 0, 0, 1, 529, 34)"><g clip-path="url(#830bbb67c2)"><g clip-path="url(#7d6760586a)"><g clip-path="url(#207ecba22f)"><path fill="#dceff4" d="M 0.769531 -3.710938 L 162.199219 -3.710938 L 162.199219 157.71875 L 0.769531 157.71875 Z M 0.769531 -3.710938 " fill-opacity="1" fill-rule="nonzero"/></g></g></g></g></g></g><g clip-path="url(#5c2fa018ce)"><g clip-path="url(#7467f852d7)"><g transform="matrix(1, 0, 0, 1, 233, 226)"><g clip-path="url(#ab24d60cfd)"><g clip-path="url(#a97252993a)"><g clip-path="url(#4d14f50cde)"><path fill="#94a3b8" d="M 0.773438 0.234375 L 226.960938 0.234375 L 226.960938 35.953125 L 0.773438 35.953125 Z M 0.773438 0.234375 " fill-opacity="1" fill-rule="nonzero"/></g></g></g></g></g></g><g clip-path="url(#2f23a8d8a0)"><g clip-path="url(#3a0643e7a3)"><g transform="matrix(1, 0, 0, 1, 43, -0.000000000000057351)"><g clip-path="url(#fc51afe24b)"><g clip-path="url(#7df68bc09b)"><g clip-path="url(#b6096a31ee)"><path fill="#0891b2" d="M 0.261719 0 L 339.472656 0 L 339.472656 196.464844 L 0.261719 196.464844 Z M 0.261719 0 " fill-opacity="1" fill-rule="nonzero"/></g></g></g></g></g></g><g clip-path="url(#cef08ab45d)"><g clip-path="url(#2337394099)"><g transform="matrix(1, 0, 0, 1, 233, 297)"><g clip-path="url(#fc0f5d15c2)"><g clip-path="url(#f239aff710)"><g clip-path="url(#51b7178f7a)"><path fill="#cbd5e1" d="M 0.773438 0.675781 L 322.261719 0.675781 L 322.261719 36.394531 L 0.773438 36.394531 Z M 0.773438 0.675781 " fill-opacity="1" fill-rule="nonzero"/></g></g></g></g></g></g><g clip-path="url(#8288eb4eae)"><g clip-path="url(#abe076939d)"><g transform="matrix(1, 0, 0, 1, 197, 639)"><g clip-path="url(#7219ded76c)"><g clip-path="url(#747b16bafa)"><g clip-path="url(#f8df56e275)"><path fill="#16a34a" d="M 0.9375 0.351562 L 60.703125 0.351562 L 60.703125 79.957031 L 0.9375 79.957031 Z M 0.9375 0.351562 " fill-opacity="1" fill-rule="nonzero"/></g></g></g></g></g></g><g clip-path="url(#f67da877be)"><g clip-path="url(#986d08a55d)"><g transform="matrix(1, 0, 0, 1, 284, 572)"><g clip-path="url(#9e6760d78f)"><g clip-path="url(#e80ccea73a)"><g clip-path="url(#9a05bf6d4d)"><path fill="#65a30d" d="M 0.265625 0.945312 L 60.027344 0.945312 L 60.027344 147.085938 L 0.265625 147.085938 Z M 0.265625 0.945312 " fill-opacity="1" fill-rule="nonzero"/></g></g></g></g></g></g><g clip-path="url(#48befd26b6)"><g clip-path="url(#075a8f4165)"><g transform="matrix(1, 0, 0, 1, 370, 506)"><g clip-path="url(#b5d071a18a)"><g clip-path="url(#a07a614cae)"><g clip-path="url(#de2a82fe03)"><path fill="#d97706" d="M 0.589844 0.542969 L 60.351562 0.542969 L 60.351562 212.984375 L 0.589844 212.984375 Z M 0.589844 0.542969 " fill-opacity="1" fill-rule="nonzero"/></g></g></g></g></g></g><g clip-path="url(#e37ee5a677)"><g clip-path="url(#057df0290b)"><g transform="matrix(1, 0, 0, 1, 456, 440)"><g clip-path="url(#12a7837741)"><g clip-path="url(#2cf016e787)"><g clip-path="url(#4acd2993bb)"><path fill="#ea580c" d="M 0.914062 0.136719 L 60.679688 0.136719 L 60.679688 279.113281 L 0.914062 279.113281 Z M 0.914062 0.136719 " fill-opacity="1" fill-rule="nonzero"/></g></g></g></g></g></g><g clip-path="url(#f1357db42f)"><g clip-path="url(#fe2c112d7e)"><g transform="matrix(1, 0, 0, 1, 543, 373)"><g clip-path="url(#81b8cef5c4)"><g clip-path="url(#bb2bd7153c)"><g clip-path="url(#94b4b2feb6)"><path fill="#b40000" d="M 0.242188 0.734375 L 60.003906 0.734375 L 60.003906 346.007812 L 0.242188 346.007812 Z M 0.242188 0.734375 " fill-opacity="1" fill-rule="nonzero"/></g></g></g></g></g></g><path fill="#68607c" d="M 204.855469 387.261719 L 246.855469 371.960938 L 248.910156 377.597656 L 206.910156 392.898438 Z M 204.855469 387.261719 " fill-opacity="1" fill-rule="nonzero"/><path fill="#68607c" d="M 266.757812 381.546875 L 271 377.304688 L 319 425.304688 L 314.757812 429.546875 Z M 266.757812 381.546875 " fill-opacity="1" fill-rule="nonzero"/><path fill="#68607c" d="M 274.46875 432.417969 L 275.285156 426.476562 L 311.285156 431.425781 L 310.46875 437.367188 Z M 274.46875 432.417969 " fill-opacity="1" fill-rule="nonzero"/><path fill="#68607c" d="M 201.542969 401.617188 L 204.226562 396.25 L 252.226562 420.25 L 249.542969 425.617188 Z M 201.542969 401.617188 " fill-opacity="1" fill-rule="nonzero"/><path fill="#68607c" d="M 203.523438 480.605469 L 206.210938 475.238281 L 249.183594 496.746094 L 246.496094 502.113281 Z M 203.523438 480.605469 " fill-opacity="1" fill-rule="nonzero"/><path fill="#68607c" d="M 256.882812 439.425781 L 262.882812 439.425781 L 262.882812 490.425781 L 256.882812 490.425781 Z M 256.882812 439.425781 " fill-opacity="1" fill-rule="nonzero"/><path fill="#68607c" d="M 199.085938 458.78125 L 249.644531 380.820312 L 254.679688 384.082031 L 204.121094 462.046875 Z M 199.085938 458.78125 " fill-opacity="1" fill-rule="nonzero"/><path fill="#68607c" d="M 267.761719 492.84375 L 315.113281 443.347656 L 319.449219 447.496094 L 272.097656 496.988281 Z M 267.761719 492.84375 " fill-opacity="1" fill-rule="nonzero"/><path fill="#68607c" d="M 198.9375 408.769531 L 204.097656 405.703125 L 253.527344 488.898438 L 248.371094 491.964844 Z M 198.9375 408.769531 " fill-opacity="1" fill-rule="nonzero"/><g clip-path="url(#5fd286b1f8)"><path fill="#4e9bb9" d="M 214.882812 472.425781 C 214.882812 475.816406 214.101562 478.996094 212.660156 481.816406 C 209.242188 488.714844 202.101562 493.425781 193.882812 493.425781 C 182.273438 493.425781 172.882812 484.035156 172.882812 472.425781 C 172.882812 460.816406 182.273438 451.425781 193.882812 451.425781 C 198.113281 451.425781 202.011719 452.65625 205.28125 454.785156 C 211.070312 458.535156 214.882812 465.015625 214.882812 472.425781 Z M 214.882812 472.425781 " fill-opacity="1" fill-rule="nonzero"/></g><g clip-path="url(#d4902138b5)"><path fill="#91cbd7" d="M 275.8125 488.777344 C 278.992188 492.4375 280.882812 497.207031 280.882812 502.425781 C 280.882812 514.035156 271.492188 523.425781 259.882812 523.425781 C 248.273438 523.425781 238.882812 514.035156 238.882812 502.425781 C 238.882812 499.996094 239.300781 497.6875 240.050781 495.527344 C 241.492188 491.296875 244.25 487.726562 247.851562 485.207031 C 251.242188 482.804688 255.382812 481.425781 259.882812 481.425781 C 266.273438 481.425781 272 484.277344 275.8125 488.777344 Z M 275.8125 488.777344 " fill-opacity="1" fill-rule="nonzero"/></g><g clip-path="url(#5dc10a5ac8)"><path fill="#ffd086" d="M 325.882812 415.425781 C 337.492188 415.425781 346.882812 424.816406 346.882812 436.425781 C 346.882812 448.035156 337.492188 457.425781 325.882812 457.425781 C 320.242188 457.425781 315.140625 455.238281 311.390625 451.578125 C 307.371094 447.796875 304.882812 442.398438 304.882812 436.425781 C 304.882812 435.464844 304.941406 434.535156 305.089844 433.605469 C 305.691406 428.925781 307.851562 424.757812 311.03125 421.578125 C 314.839844 417.765625 320.0625 415.425781 325.882812 415.425781 Z M 325.882812 415.425781 " fill-opacity="1" fill-rule="nonzero"/></g><path fill="#ed6571" d="M 280.671875 430.246094 C 279.320312 440.507812 270.53125 448.425781 259.882812 448.425781 C 248.273438 448.425781 238.882812 439.035156 238.882812 427.425781 C 238.882812 424.035156 239.660156 420.855469 241.101562 418.035156 C 244.523438 411.136719 251.660156 406.425781 259.882812 406.425781 C 271.492188 406.425781 280.882812 415.816406 280.882812 427.425781 C 280.882812 428.386719 280.820312 429.316406 280.671875 430.246094 Z M 280.671875 430.246094 " fill-opacity="1" fill-rule="nonzero"/><g clip-path="url(#5aa2091510)"><path fill="#f69489" d="M 259.882812 349.425781 C 271.492188 349.425781 280.882812 358.816406 280.882812 370.425781 C 280.882812 376.246094 278.542969 381.464844 274.730469 385.277344 C 270.921875 389.085938 265.703125 391.425781 259.882812 391.425781 C 255.652344 391.425781 251.75 390.195312 248.480469 388.066406 C 244.671875 385.605469 241.703125 381.945312 240.140625 377.597656 C 239.332031 375.375 238.882812 372.945312 238.882812 370.425781 C 238.882812 358.816406 248.273438 349.425781 259.882812 349.425781 Z M 259.882812 349.425781 " fill-opacity="1" fill-rule="nonzero"/></g><g clip-path="url(#ac39972265)"><path fill="#91cbd7" d="M 213.621094 387.257812 C 214.433594 389.476562 214.882812 391.90625 214.882812 394.425781 C 214.882812 397.816406 214.101562 400.996094 212.660156 403.816406 C 210.863281 407.417969 208.070312 410.417969 204.621094 412.457031 C 201.5 414.347656 197.8125 415.425781 193.882812 415.425781 C 182.273438 415.425781 172.882812 406.035156 172.882812 394.425781 C 172.882812 382.816406 182.273438 373.425781 193.882812 373.425781 C 202.972656 373.425781 210.683594 379.1875 213.621094 387.257812 Z M 213.621094 387.257812 " fill-opacity="1" fill-rule="nonzero"/></g><g transform="matrix(1, 0, 0, 1, 108, 17)"><g clip-path="url(#a0c7216722)"><g fill="#ffffff" fill-opacity="1"><g transform="translate(3.634105, 125.883736)"><g><path d="M 7.375 0 L 7.375 -98.15625 L 43.28125 -98.15625 L 55.859375 -59.875 C 56.554688 -57.550781 57.367188 -54.519531 58.296875 -50.78125 C 59.222656 -47.050781 60.144531 -43.054688 61.0625 -38.796875 C 61.988281 -34.535156 62.859375 -30.441406 63.671875 -26.515625 C 64.484375 -22.585938 65.128906 -19.238281 65.609375 -16.46875 L 60.796875 -16.46875 C 61.328125 -19.238281 61.972656 -22.585938 62.734375 -26.515625 C 63.503906 -30.441406 64.363281 -34.523438 65.3125 -38.765625 C 66.257812 -43.003906 67.179688 -46.988281 68.078125 -50.71875 C 68.972656 -54.457031 69.773438 -57.507812 70.484375 -59.875 L 82.875 -98.15625 L 118.90625 -98.15625 L 118.90625 0 L 95.515625 0 L 95.515625 -42.359375 C 95.515625 -44.554688 95.554688 -47.351562 95.640625 -50.75 C 95.734375 -54.15625 95.832031 -57.851562 95.9375 -61.84375 C 96.050781 -65.84375 96.160156 -69.875 96.265625 -73.9375 C 96.378906 -78 96.4375 -81.785156 96.4375 -85.296875 L 98.15625 -85.296875 C 97.3125 -81.484375 96.375 -77.507812 95.34375 -73.375 C 94.3125 -69.25 93.269531 -65.234375 92.21875 -61.328125 C 91.164062 -57.421875 90.164062 -53.816406 89.21875 -50.515625 C 88.28125 -47.222656 87.476562 -44.503906 86.8125 -42.359375 L 72.859375 0 L 53.484375 0 L 39.265625 -42.359375 C 38.597656 -44.503906 37.78125 -47.210938 36.8125 -50.484375 C 35.851562 -53.765625 34.847656 -57.359375 33.796875 -61.265625 C 32.742188 -65.171875 31.6875 -69.1875 30.625 -73.3125 C 29.570312 -77.4375 28.585938 -81.429688 27.671875 -85.296875 L 29.703125 -85.296875 C 29.703125 -81.878906 29.753906 -78.140625 29.859375 -74.078125 C 29.972656 -70.015625 30.082031 -65.972656 30.1875 -61.953125 C 30.300781 -57.929688 30.398438 -54.207031 30.484375 -50.78125 C 30.578125 -47.363281 30.625 -44.554688 30.625 -42.359375 L 30.625 0 Z M 7.375 0 "/></g></g></g><g fill="#ffffff" fill-opacity="1"><g transform="translate(129.824146, 125.883736)"><g><path d="M 7.375 0 L 7.375 -98.15625 L 30.703125 -98.15625 L 30.703125 -19.234375 L 72.265625 -19.234375 L 72.265625 0 Z M 7.375 0 "/></g></g></g></g></g></svg>